<svg
    xmlns="http://www.w3.org/2000/svg"
    id="Layer_1"
    data-name="Layer 1"
    viewBox="0 0 512 512"
    className="w-20 h-20"
  >
    <path
      fill="#08a8ed"
      d="M451.4,232.34h24.28c-11.17-102.5-92.49-183.91-195-195V61.63A197,197,0,0,1,451.4,232.34Z"
    />
    <path
      fill="#00c88f"
      d="M465.11,33.47a1.69,1.69,0,0,0-1.21.45H429.46c-8.44,0-15.28,7.74-15.28,17.29S421,68.5,429.46,68.5h7l-173,181.76-35.66-53.79c-5.06-7.65-14.64-9.2-21.39-3.48-.27.23-.53.47-.78.71l-107,103.75c-6.55,6-7.55,16.91-2.23,24.32s14.94,8.54,21.49,2.52c.21-.19.41-.38.6-.58L213.09,232l36.07,54.38c5.06,7.64,14.64,9.19,21.39,3.46a16.61,16.61,0,0,0,1.22-1.16L460,90.85v12.23c0,9.55,6.84,17.29,15.28,17.29s15.28-7.74,15.28-17.29V51.21c0-9.55-6.84-17.29-15.28-17.29h-9.17a1.79,1.79,0,0,0-1-.44Z"
    />
    <path
      fill="#08a8ed"
      d="M451.55,280.41C440,378.15,356.85,454,256,454,147.24,454,59.06,365.79,59.06,257c0-100.88,75.82-184,173.56-195.55V37.28c-110.4,12-196.34,105.5-196.34,219.1A219.46,219.46,0,0,0,64.73,364.74C53.18,371.25,44.09,382.82,39.52,397a56.32,56.32,0,0,0-3.24,18.81v2.05c0,32.15,21.88,58.26,49.06,58.83H256v-1h.66v1c113.56,0,207.08-85.94,219.06-196.34Z"
    />
  </svg>