<svg
    xmlns="http://www.w3.org/2000/svg"
    id="Layer_1"
    data-name="Layer 1"
    viewBox="0 0 512 512"
    className="w-20 h-20"
  >
    <path
      fill="#08a8ed"
      d="M60.29,316.61C31.87,310.55,16.06,291,15.93,261.78c0-12.37-.13-24.74,0-37.1.31-25.13,14.63-43.59,38.57-51,2.93-.9,6-4.57,7.1-7.64,23.16-63.24,66.65-105.84,130-127.92,9.89-3.45,20.89-3.61,31.23-5.92,56.75-12.66,107.3,2.72,153.49,35,35.24,24.66,59.19,58.42,73.38,99,1.54,4.41,3.5,6.7,8.2,8A50.43,50.43,0,0,1,495.82,222c.42,15.17.45,30.37-.07,45.53-.63,18.9-10.17,32.84-26,42.51a35.9,35.9,0,0,1-12.51,5.06c-5.36.85-6.11,4.34-7.54,8.36a208.22,208.22,0,0,1-61.61,89.77c-1.81,1.55-3.79,4.53-3.56,6.61,1.64,15.11-3.85,26.68-17.19,33.54s-26.07,3.67-37.29-5.92l-8.7-18.61C319,399.21,349,385.45,369,397.16a6.14,6.14,0,0,0,5.64-.36c25.41-21.3,43.53-47.66,54.95-79.57-3,0-5.21.15-7.42,0-16.72-1.36-29.53-12.41-30-28.57-.84-29.49-.7-59,0-88.52.33-13.38,11.05-24.52,23.77-27.15,4.26-.88,8.75-.65,13.22-.93-22.07-68.09-92-124.7-176.81-123.2-85.93,1.51-151.1,62-169.9,123.25,1.4.1,2.72.27,4,.3,21.32.49,33.51,12.39,33.67,33.45q.3,38.8,0,77.6c-.08,15.59-7.53,27.27-20.57,31.48-5.49,1.77-11.53,1.82-17.33,2.65ZM79.06,192.88V295.8c3.66,0,7,.17,10.25,0,6.34-.4,9.76-3.95,9.78-10.26.07-27.2,0-54.4,0-81.59,0-6.91-4.1-10.09-10.32-11C85.8,192.54,82.71,192.88,79.06,192.88ZM432.65,295.82V192.89c-3.59,0-6.71-.37-9.7.08-6.21.92-10.21,4.17-10.21,11.07,0,27.2-.05,54.4.05,81.59,0,6.31,3.6,9.76,9.89,10.15C425.75,296,428.84,295.82,432.65,295.82ZM56.91,195.73c-12,4.4-19.83,14.45-20.08,26.53-.3,14.84-.34,29.7,0,44.54A27.94,27.94,0,0,0,56.91,293Zm398,98.43c13.53-6.37,20.16-16.36,20.16-30.69,0-13.45.15-26.9-.05-40.35-.19-12.63-7.72-22.81-20.11-27.42ZM363.87,426.28c0-7.37-5.54-13.13-11.28-12.39-6.23.81-10.29,4.51-10.6,11.09-.29,6.25,4.91,11,11.41,10.72C360.21,435.42,363.34,431.43,363.87,426.28Z"
    />
    <path
      fill="#08a8ed"
      d="M80.25,318.25H56.5a216,216,0,0,0,15.41,33.67c-11.36,6.39-20.29,17.77-24.78,31.72A55.18,55.18,0,0,0,44,402.13c0,.32,0,.65,0,1s0,.69,0,1c0,31.6,21.5,57.26,48.2,57.82v0h162V439.49A193.55,193.55,0,0,1,80.25,318.25Z"
    />
    <circle fill="#e11d48" cx="207.07" cy="253.26" r="15.42" />
    <circle fill="#e11d48" cx="259.11" cy="253.26" r="15.42" />
    <circle fill="#e11d48" cx="308.94" cy="253.26" r="15.42" />
  </svg>