<svg
    xmlns="http://www.w3.org/2000/svg"
    id="Layer_1"
    data-name="Layer 1"
    viewBox="0 0 512 512"
    className="w-20 h-20"
  >
    <path
      fill="#3730a3"
      d="M324.77,181.89H191.58a72.37,72.37,0,0,0,0,144.74H324.77a72.37,72.37,0,0,0,0-144.74Z"
    />
    <path
      fill="#ffffff"
      d="M272.61,292.48a7.28,7.28,0,0,1-5.52-2.49L245.5,265.46v19.68a7.35,7.35,0,0,1-14.69,0V221.42a7.35,7.35,0,0,1,7.35-7.34h17C268.8,214.08,280,224.8,280,238h0c0,11.14-7.95,20.52-18.68,23.16l16.85,19.14a7.35,7.35,0,0,1-5.51,12.2Z"
    />
    <path
      fill="#3730a3"
      d="M265.26,238c0-5-4.65-9.21-10.15-9.21h-9.57c0,3.54,0,15.08.06,18.46l9.51,0C260.61,247.19,265.26,243,265.26,238Z"
    />
    <path
      fill="#ffffff"
      d="M196.11,245.93a7.35,7.35,0,1,1,0,14.7H178.82V277.5h19.25a7.35,7.35,0,1,1,0,14.69h-26.6a7.34,7.34,0,0,1-7.34-7.34V221.71a7.34,7.34,0,0,1,7.34-7.34h26.6a7.35,7.35,0,1,1,0,14.69H178.82v16.87Z"
    />
    <path
      fill="#ffffff"
      d="M332.42,264.73l-10.39,0v20.37a7.35,7.35,0,0,1-14.69,0V221.42a7.34,7.34,0,0,1,7.34-7.34h17.74a25.33,25.33,0,1,1,0,50.65Z"
    />
    <path
      fill="#3730a3"
      d="M332.42,228.77H322.05c0,4,0,17.47.06,21.31l10.31,0a10.64,10.64,0,1,0,0-21.27Z"
    />
    <path
      fill="#08a8ed"
      d="M458.78,233.94H484C472.39,127.57,388,43.09,281.63,31.55V56.79A204.46,204.46,0,0,1,458.78,233.94Z"
    />
    <path
      fill="#08a8ed"
      d="M458.93,283.83C446.94,385.27,360.66,464,256,464,143.13,464,51.63,372.44,51.63,259.57c0-104.69,78.67-190.94,180.11-202.94V31.52C117.17,44,28,141,28,258.89A227.65,227.65,0,0,0,57.51,371.35c-12,6.76-21.43,18.77-26.17,33.51A58.44,58.44,0,0,0,28,424.38v2.12c0,33.37,22.71,60.47,50.91,61.06H256v-1.05h.69v1.05c117.84,0,214.9-89.19,227.33-203.76Z"
    />
  </svg>