<svg
    xmlns="http://www.w3.org/2000/svg"
    id="Layer_1"
    data-name="Layer 1"
    viewBox="0 0 512 512"
  >
    <path
      fill="#08a8ed"
      d="M469.51,226.85H495.6c-12-110.12-99.37-197.58-209.49-209.53V43.45A211.68,211.68,0,0,1,469.51,226.85Z"
    />
    <path
      fill="#08a8ed"
      d="M469.67,278.5C457.25,383.51,367.93,465,259.58,465,142.73,465,48,370.23,48,253.38,48,145,129.45,55.71,234.46,43.29v-26C115.85,30.19,23.52,130.64,23.52,252.68A235.7,235.7,0,0,0,54.09,369.1c-12.41,7-22.18,19.43-27.09,34.69A60.45,60.45,0,0,0,23.52,424c0,.36,0,.71,0,1.07s0,.75,0,1.13c0,34.54,23.51,62.6,52.71,63.21v0H259.58v-1.09h.71v1.09c122,0,222.48-92.33,235.35-210.94Z"
    />
    <path
      fill="none"
      stroke="#fbbc05"
      strokeMiterlimit="10"
      stroke-width="20"
      fillRule="evenodd"
      d="M259.58,116.42a62.68,62.68,0,1,1-62.67,62.68A62.68,62.68,0,0,1,259.58,116.42Z"
    />
    <path
      fill="none"
      stroke="#fbbc05"
      strokeMiterlimit="10"
      stroke-width="20"
      fillRule="evenodd"
      d="M144.85,364.72H374.32a7.37,7.37,0,0,0,7.39-7.33,7.81,7.81,0,0,0-.12-1.36,124,124,0,0,0-244,0,7.37,7.37,0,0,0,5.9,8.57,7.84,7.84,0,0,0,1.37.12Z"
    />
  </svg>