<svg width="1920" height="1080" viewBox="0 0 1920 1080" fill="none" xmlns="http://www.w3.org/2000/svg">
<g clip-path="url(#clip0_83_53)">
<mask id="mask0_83_53" style="mask-type:luminance" maskUnits="userSpaceOnUse" x="0" y="0" width="1920" height="1080">
<path d="M1920 0H0V1080H1920V0Z" fill="white"/>
</mask>
<g mask="url(#mask0_83_53)">
<path d="M1920 0H0V1080H1920V0Z" fill="#F5F5F5"/>
<path d="M1920 0H0V62H1920V0Z" fill="white"/>
<path d="M1920 60.76H0V62H1920V60.76Z" fill="#DCDCDC"/>
<path d="M250 0H0V1080H250V0Z" fill="white"/>
<path fill-rule="evenodd" clip-rule="evenodd" d="M251 -8V1080H250V-8H251Z" fill="#DCDCDC"/>
<path d="M82.0386 29.7842C82.0386 30.4202 81.8886 31.0202 81.5886 31.5842C81.2886 32.1482 80.8086 32.6102 80.1486 32.9702C79.4886 33.3182 78.6426 33.4922 77.6106 33.4922H75.3426V38.5682H73.2906V26.0582H77.6106C78.5706 26.0582 79.3806 26.2262 80.0406 26.5622C80.7126 26.8862 81.2106 27.3302 81.5346 27.8942C81.8706 28.4582 82.0386 29.0882 82.0386 29.7842ZM77.6106 31.8182C78.3906 31.8182 78.9726 31.6442 79.3566 31.2962C79.7406 30.9362 79.9326 30.4322 79.9326 29.7842C79.9326 28.4162 79.1586 27.7322 77.6106 27.7322H75.3426V31.8182H77.6106ZM97.1717 26.0582V38.5682H95.1197V30.0002L91.3037 38.5682H89.8817L86.0477 30.0002V38.5682H83.9957V26.0582H86.2097L90.6017 35.8682L94.9757 26.0582H97.1717ZM105.575 38.6942C104.411 38.6942 103.337 38.4242 102.353 37.8842C101.381 37.3322 100.607 36.5702 100.031 35.5982C99.4667 34.6142 99.1847 33.5102 99.1847 32.2862C99.1847 31.0622 99.4667 29.9642 100.031 28.9922C100.607 28.0202 101.381 27.2642 102.353 26.7242C103.337 26.1722 104.411 25.8962 105.575 25.8962C106.751 25.8962 107.825 26.1722 108.797 26.7242C109.781 27.2642 110.555 28.0202 111.119 28.9922C111.683 29.9642 111.965 31.0622 111.965 32.2862C111.965 33.5102 111.683 34.6142 111.119 35.5982C110.555 36.5702 109.781 37.3322 108.797 37.8842C107.825 38.4242 106.751 38.6942 105.575 38.6942ZM105.575 36.9122C106.403 36.9122 107.141 36.7262 107.789 36.3542C108.437 35.9702 108.941 35.4302 109.301 34.7342C109.673 34.0262 109.859 33.2102 109.859 32.2862C109.859 31.3622 109.673 30.5522 109.301 29.8562C108.941 29.1602 108.437 28.6262 107.789 28.2542C107.141 27.8822 106.403 27.6962 105.575 27.6962C104.747 27.6962 104.009 27.8822 103.361 28.2542C102.713 28.6262 102.203 29.1602 101.831 29.8562C101.471 30.5522 101.291 31.3622 101.291 32.2862C101.291 33.2102 101.471 34.0262 101.831 34.7342C102.203 35.4302 102.713 35.9702 103.361 36.3542C104.009 36.7262 104.747 36.9122 105.575 36.9122ZM122.746 26.0582C124.078 26.0582 125.242 26.3162 126.238 26.8322C127.246 27.3362 128.02 28.0682 128.56 29.0282C129.112 29.9762 129.388 31.0862 129.388 32.3582C129.388 33.6302 129.112 34.7342 128.56 35.6702C128.02 36.6062 127.246 37.3262 126.238 37.8302C125.242 38.3222 124.078 38.5682 122.746 38.5682H118.66V26.0582H122.746ZM122.746 36.8942C124.21 36.8942 125.332 36.4982 126.112 35.7062C126.892 34.9142 127.282 33.7982 127.282 32.3582C127.282 30.9062 126.892 29.7722 126.112 28.9562C125.332 28.1402 124.21 27.7322 122.746 27.7322H120.712V36.8942H122.746ZM130.737 33.5642C130.737 32.5682 130.941 31.6862 131.349 30.9182C131.769 30.1502 132.333 29.5562 133.041 29.1362C133.761 28.7042 134.553 28.4882 135.417 28.4882C136.197 28.4882 136.875 28.6442 137.451 28.9562C138.039 29.2562 138.507 29.6342 138.855 30.0902V28.6502H140.925V38.5682H138.855V37.0922C138.507 37.5602 138.033 37.9502 137.433 38.2622C136.833 38.5742 136.149 38.7302 135.381 38.7302C134.529 38.7302 133.749 38.5142 133.041 38.0822C132.333 37.6382 131.769 37.0262 131.349 36.2462C130.941 35.4542 130.737 34.5602 130.737 33.5642ZM138.855 33.6002C138.855 32.9162 138.711 32.3222 138.423 31.8182C138.147 31.3142 137.781 30.9302 137.325 30.6662C136.869 30.4022 136.377 30.2702 135.849 30.2702C135.321 30.2702 134.829 30.4022 134.373 30.6662C133.917 30.9182 133.545 31.2962 133.257 31.8002C132.981 32.2922 132.843 32.8802 132.843 33.5642C132.843 34.2482 132.981 34.8482 133.257 35.3642C133.545 35.8802 133.917 36.2762 134.373 36.5522C134.841 36.8162 135.333 36.9482 135.849 36.9482C136.377 36.9482 136.869 36.8162 137.325 36.5522C137.781 36.2882 138.147 35.9042 138.423 35.4002C138.711 34.8842 138.855 34.2842 138.855 33.6002ZM147.221 38.7302C146.441 38.7302 145.739 38.5922 145.115 38.3162C144.503 38.0282 144.017 37.6442 143.657 37.1642C143.297 36.6722 143.105 36.1262 143.081 35.5262H145.205C145.241 35.9462 145.439 36.3002 145.799 36.5882C146.171 36.8642 146.633 37.0022 147.185 37.0022C147.761 37.0022 148.205 36.8942 148.517 36.6782C148.841 36.4502 149.003 36.1622 149.003 35.8142C149.003 35.4422 148.823 35.1662 148.463 34.9862C148.115 34.8062 147.557 34.6082 146.789 34.3922C146.045 34.1882 145.439 33.9902 144.971 33.7982C144.503 33.6062 144.095 33.3122 143.747 32.9162C143.411 32.5202 143.243 31.9982 143.243 31.3502C143.243 30.8222 143.399 30.3422 143.711 29.9102C144.023 29.4662 144.467 29.1182 145.043 28.8662C145.631 28.6142 146.303 28.4882 147.059 28.4882C148.187 28.4882 149.093 28.7762 149.777 29.3522C150.473 29.9162 150.845 30.6902 150.893 31.6742H148.841C148.805 31.2302 148.625 30.8762 148.301 30.6122C147.977 30.3482 147.539 30.2162 146.987 30.2162C146.447 30.2162 146.033 30.3182 145.745 30.5222C145.457 30.7262 145.313 30.9962 145.313 31.3322C145.313 31.5962 145.409 31.8182 145.601 31.9982C145.793 32.1782 146.027 32.3222 146.303 32.4302C146.579 32.5262 146.987 32.6522 147.527 32.8082C148.247 33.0002 148.835 33.1982 149.291 33.4022C149.759 33.5942 150.161 33.8822 150.497 34.2662C150.833 34.6502 151.007 35.1602 151.019 35.7962C151.019 36.3602 150.863 36.8642 150.551 37.3082C150.239 37.7522 149.795 38.1002 149.219 38.3522C148.655 38.6042 147.989 38.7302 147.221 38.7302ZM158.366 28.4882C159.122 28.4882 159.794 28.6502 160.382 28.9742C160.982 29.2982 161.45 29.7782 161.786 30.4142C162.134 31.0502 162.308 31.8182 162.308 32.7182V38.5682H160.274V33.0242C160.274 32.1362 160.052 31.4582 159.608 30.9902C159.164 30.5102 158.558 30.2702 157.79 30.2702C157.022 30.2702 156.41 30.5102 155.954 30.9902C155.51 31.4582 155.288 32.1362 155.288 33.0242V38.5682H153.236V25.2482H155.288V29.8022C155.636 29.3822 156.074 29.0582 156.602 28.8302C157.142 28.6022 157.73 28.4882 158.366 28.4882ZM166.977 30.1262C167.325 29.6462 167.799 29.2562 168.399 28.9562C169.011 28.6442 169.689 28.4882 170.433 28.4882C171.309 28.4882 172.101 28.6982 172.809 29.1182C173.517 29.5382 174.075 30.1382 174.483 30.9182C174.891 31.6862 175.095 32.5682 175.095 33.5642C175.095 34.5602 174.891 35.4542 174.483 36.2462C174.075 37.0262 173.511 37.6382 172.791 38.0822C172.083 38.5142 171.297 38.7302 170.433 38.7302C169.665 38.7302 168.981 38.5802 168.381 38.2802C167.793 37.9802 167.325 37.5962 166.977 37.1282V38.5682H164.925V25.2482H166.977V30.1262ZM173.007 33.5642C173.007 32.8802 172.863 32.2922 172.575 31.8002C172.299 31.2962 171.927 30.9182 171.459 30.6662C171.003 30.4022 170.511 30.2702 169.983 30.2702C169.467 30.2702 168.975 30.4022 168.507 30.6662C168.051 30.9302 167.679 31.3142 167.391 31.8182C167.115 32.3222 166.977 32.9162 166.977 33.6002C166.977 34.2842 167.115 34.8842 167.391 35.4002C167.679 35.9042 168.051 36.2882 168.507 36.5522C168.975 36.8162 169.467 36.9482 169.983 36.9482C170.511 36.9482 171.003 36.8162 171.459 36.5522C171.927 36.2762 172.299 35.8802 172.575 35.3642C172.863 34.8482 173.007 34.2482 173.007 33.5642ZM181.427 38.7302C180.491 38.7302 179.645 38.5202 178.889 38.1002C178.133 37.6682 177.539 37.0682 177.107 36.3002C176.675 35.5202 176.459 34.6202 176.459 33.6002C176.459 32.5922 176.681 31.6982 177.125 30.9182C177.569 30.1382 178.175 29.5382 178.943 29.1182C179.711 28.6982 180.569 28.4882 181.517 28.4882C182.465 28.4882 183.323 28.6982 184.091 29.1182C184.859 29.5382 185.465 30.1382 185.909 30.9182C186.353 31.6982 186.575 32.5922 186.575 33.6002C186.575 34.6082 186.347 35.5022 185.891 36.2822C185.435 37.0622 184.811 37.6682 184.019 38.1002C183.239 38.5202 182.375 38.7302 181.427 38.7302ZM181.427 36.9482C181.955 36.9482 182.447 36.8222 182.903 36.5702C183.371 36.3182 183.749 35.9402 184.037 35.4362C184.325 34.9322 184.469 34.3202 184.469 33.6002C184.469 32.8802 184.331 32.2742 184.055 31.7822C183.779 31.2782 183.413 30.9002 182.957 30.6482C182.501 30.3962 182.009 30.2702 181.481 30.2702C180.953 30.2702 180.461 30.3962 180.005 30.6482C179.561 30.9002 179.207 31.2782 178.943 31.7822C178.679 32.2742 178.547 32.8802 178.547 33.6002C178.547 34.6682 178.817 35.4962 179.357 36.0842C179.909 36.6602 180.599 36.9482 181.427 36.9482ZM187.919 33.5642C187.919 32.5682 188.123 31.6862 188.531 30.9182C188.951 30.1502 189.515 29.5562 190.223 29.1362C190.943 28.7042 191.735 28.4882 192.599 28.4882C193.379 28.4882 194.057 28.6442 194.633 28.9562C195.221 29.2562 195.689 29.6342 196.037 30.0902V28.6502H198.107V38.5682H196.037V37.0922C195.689 37.5602 195.215 37.9502 194.615 38.2622C194.015 38.5742 193.331 38.7302 192.563 38.7302C191.711 38.7302 190.931 38.5142 190.223 38.0822C189.515 37.6382 188.951 37.0262 188.531 36.2462C188.123 35.4542 187.919 34.5602 187.919 33.5642ZM196.037 33.6002C196.037 32.9162 195.893 32.3222 195.605 31.8182C195.329 31.3142 194.963 30.9302 194.507 30.6662C194.051 30.4022 193.559 30.2702 193.031 30.2702C192.503 30.2702 192.011 30.4022 191.555 30.6662C191.099 30.9182 190.727 31.2962 190.439 31.8002C190.163 32.2922 190.025 32.8802 190.025 33.5642C190.025 34.2482 190.163 34.8482 190.439 35.3642C190.727 35.8802 191.099 36.2762 191.555 36.5522C192.023 36.8162 192.515 36.9482 193.031 36.9482C193.559 36.9482 194.051 36.8162 194.507 36.5522C194.963 36.2882 195.329 35.9042 195.605 35.4002C195.893 34.8842 196.037 34.2842 196.037 33.6002ZM202.854 30.0902C203.154 29.5862 203.55 29.1962 204.042 28.9202C204.546 28.6322 205.14 28.4882 205.824 28.4882V30.6122H205.302C204.498 30.6122 203.886 30.8162 203.466 31.2242C203.058 31.6322 202.854 32.3402 202.854 33.3482V38.5682H200.802V28.6502H202.854V30.0902ZM207.027 33.5642C207.027 32.5682 207.231 31.6862 207.639 30.9182C208.059 30.1502 208.623 29.5562 209.331 29.1362C210.051 28.7042 210.849 28.4882 211.725 28.4882C212.373 28.4882 213.009 28.6322 213.633 28.9202C214.269 29.1962 214.773 29.5682 215.145 30.0362V25.2482H217.215V38.5682H215.145V37.0742C214.809 37.5542 214.341 37.9502 213.741 38.2622C213.153 38.5742 212.475 38.7302 211.707 38.7302C210.843 38.7302 210.051 38.5142 209.331 38.0822C208.623 37.6382 208.059 37.0262 207.639 36.2462C207.231 35.4542 207.027 34.5602 207.027 33.5642ZM215.145 33.6002C215.145 32.9162 215.001 32.3222 214.713 31.8182C214.437 31.3142 214.071 30.9302 213.615 30.6662C213.159 30.4022 212.667 30.2702 212.139 30.2702C211.611 30.2702 211.119 30.4022 210.663 30.6662C210.207 30.9182 209.835 31.2962 209.547 31.8002C209.271 32.2922 209.133 32.8802 209.133 33.5642C209.133 34.2482 209.271 34.8482 209.547 35.3642C209.835 35.8802 210.207 36.2762 210.663 36.5522C211.131 36.8162 211.623 36.9482 212.139 36.9482C212.667 36.9482 213.159 36.8162 213.615 36.5522C214.071 36.2882 214.437 35.9042 214.713 35.4002C215.001 34.8842 215.145 34.2842 215.145 33.6002Z" fill="#004BA6"/>
<path d="M29.0914 31.4503C29.1827 31.2676 29.2741 31.0849 29.2741 30.9021C29.8223 27.8871 31.1927 25.1463 33.3854 22.9535C34.1163 21.9485 35.5781 21.7658 36.5831 22.5881C37.5881 23.4104 37.7709 24.7808 36.9486 25.7858C36.8572 25.8772 36.7659 26.0599 36.6745 26.1512C32.4718 30.5367 32.5632 37.5716 36.9486 41.7743C41.334 45.977 48.369 45.8857 52.5717 41.5002C56.683 37.2062 56.683 30.4453 52.5717 26.1512C51.658 25.329 51.4753 23.9585 52.2062 23.0449C52.9371 22.0399 54.3989 21.9485 55.3126 22.6795C55.4039 22.7708 55.4953 22.8622 55.5866 22.9535C57.9621 25.329 59.5153 28.4353 59.8807 31.7244C60.8857 40.2212 54.7644 47.987 46.1763 48.9006C38.0449 49.8143 30.6445 44.3325 29.1827 36.2925C29.1827 36.1098 29.0914 35.9271 29 35.7444L29.0914 31.4503Z" fill="#004BA6"/>
<path d="M52.2974 14C52.3888 14.0914 52.4802 14.1827 52.5715 14.1827C53.6679 14.7309 54.1247 16.1013 53.5765 17.1977C53.2111 17.9286 52.3888 18.4768 51.5665 18.4768C50.1047 18.4768 48.7343 18.4768 47.2725 18.4768C47.0898 18.4768 46.9984 18.4768 46.7243 18.4768V19.2077C46.7243 23.9586 46.7243 28.7094 46.7243 33.5517C46.8157 34.7394 45.8107 35.8358 44.6229 35.8358C43.7093 35.8358 42.7957 35.2876 42.4302 34.4653C42.3389 34.0999 42.2475 33.7344 42.2475 33.2776C42.2475 28.6181 42.2475 24.0499 42.2475 19.3904V18.4768H37.6794C36.4003 18.5682 35.3953 17.6545 35.3039 16.3754C35.2126 15.4618 35.7607 14.5482 36.6744 14.1827C36.7657 14.1827 36.7657 14.0914 36.7657 14.0914H52.2974V14Z" fill="#E66312"/>
</g>
<path d="M981.035 274H289.965C285.014 274 281 279.373 281 286V640C281 646.627 285.014 652 289.965 652H981.035C985.986 652 990 646.627 990 640V286C990 279.373 985.986 274 981.035 274Z" fill="white"/>
<path d="M938.965 680H1630.03C1634.99 680 1639 685.373 1639 692V1046C1639 1052.63 1634.99 1058 1630.03 1058H938.965C934.014 1058 930 1052.63 930 1046V692C930 685.373 934.014 680 938.965 680Z" fill="white"/>
<path d="M1627 274H1028C1021.37 274 1016 279.373 1016 286V640C1016 646.627 1021.37 652 1028 652H1627C1633.63 652 1639 646.627 1639 640V286C1639 279.373 1633.63 274 1627 274Z" fill="white"/>
<path d="M293 680H892C898.627 680 904 685.373 904 692V1046C904 1052.63 898.627 1058 892 1058H293C286.373 1058 281 1052.63 281 1046V692C281 685.373 286.373 680 293 680Z" fill="white"/>
</g>
<defs>
<clipPath id="clip0_83_53">
<rect width="1920" height="1080" fill="white"/>
</clipPath>
</defs>
</svg>
