<?xml version="1.0" encoding="utf-8"?>
<!-- Generator: Adobe Illustrator 25.3.0, SVG Export Plug-In . SVG Version: 6.00 Build 0)  -->
<svg version="1.1" id="Layer_1" xmlns="http://www.w3.org/2000/svg" xmlns:xlink="http://www.w3.org/1999/xlink" x="0px" y="0px"
	 viewBox="0 0 180 60" style="enable-background:new 0 0 180 60;" xml:space="preserve">
<style type="text/css">
	.st0{fill:url(#SVGID_1_);}
	.st1{fill:url(#Path_4544_1_);}
	.st2{fill:url(#Path_4545_1_);}
	.st3{fill:url(#Path_4546_1_);}
	.st4{fill:url(#Path_4547_1_);}
	.st5{fill:url(#Path_4549_1_);}
	.st6{fill:#FEFEFE;}
	.st7{fill:url(#SVGID_2_);}
</style>
<linearGradient id="SVGID_1_" gradientUnits="userSpaceOnUse" x1="27.8223" y1="16.5671" x2="10.83" y2="16.5671">
	<stop  offset="0" style="stop-color:#4EBC48"/>
	<stop  offset="0.2761" style="stop-color:#4DAB56"/>
	<stop  offset="0.7114" style="stop-color:#4C9767"/>
	<stop  offset="1" style="stop-color:#4B8F6D"/>
</linearGradient>
<path class="st0" d="M10.8,17.2c4.1-1.9,6.3-3,13.8-3.7c8.9-0.8-3.6,6.2-3.7,6.2h-5L10.8,17.2z"/>
<linearGradient id="Path_4544_1_" gradientUnits="userSpaceOnUse" x1="4.5885" y1="30.5194" x2="25.6859" y2="42.7">
	<stop  offset="0" style="stop-color:#A82C99"/>
	<stop  offset="0.1989" style="stop-color:#9C3099"/>
	<stop  offset="0.7024" style="stop-color:#813A9A"/>
	<stop  offset="1" style="stop-color:#773D9A"/>
</linearGradient>
<path id="Path_4544" class="st1" d="M23.4,46.6c-3.1-0.5-10.1-5.8-11.9-7.2c-2.8-2.3-5.4-4.9-7.6-7.7c3,0,6-0.8,8.6-2.3
	C14.4,36.1,18.2,42,23.4,46.6z"/>
<linearGradient id="Path_4545_1_" gradientUnits="userSpaceOnUse" x1="16.1004" y1="25.8496" x2="31.5939" y2="41.3432">
	<stop  offset="0" style="stop-color:#A31896"/>
	<stop  offset="0.1935" style="stop-color:#8A1C94"/>
	<stop  offset="0.4034" style="stop-color:#762093"/>
	<stop  offset="0.5447" style="stop-color:#6F2192"/>
	<stop  offset="0.5603" style="stop-color:#6C2192"/>
	<stop  offset="0.6887" style="stop-color:#5B2294"/>
	<stop  offset="0.8286" style="stop-color:#512396"/>
	<stop  offset="1" style="stop-color:#4E2396"/>
</linearGradient>
<path id="Path_4545" class="st2" d="M30.1,37.3L30.1,37.3c-0.2,1.8-0.5,3.8-0.9,6.1c-1.3,2-2.6,3.1-5.2,3.2c-0.2,0-0.3,0-0.5,0
	c-5.2-4.6-9-10.5-10.9-17.2c0.8-0.4,1.7-0.9,2.6-1.5c5.9-3.5,10-5.9,11.9-4.5C28.7,24.6,31.1,27.2,30.1,37.3z"/>
<linearGradient id="Path_4546_1_" gradientUnits="userSpaceOnUse" x1="37.9438" y1="34.6662" x2="19.8238" y2="16.5462">
	<stop  offset="0.4419" style="stop-color:#2D5CAC"/>
	<stop  offset="0.5629" style="stop-color:#2D64B2"/>
	<stop  offset="0.7557" style="stop-color:#2C7CC3"/>
	<stop  offset="0.9952" style="stop-color:#2AA1DE"/>
	<stop  offset="1" style="stop-color:#2AA2DF"/>
</linearGradient>
<path id="Path_4546" class="st3" d="M29.3,43.2c-0.1,0.1-0.1,0.2-0.2,0.3c0.4-2.3,0.7-4.3,0.9-6.1l0,0c2.7-12.2,0.5-17.6-2-20.5
	c-1.4-1.7-3.7-2.2-6.4-2.1c0.9-0.4,1.9-0.8,3-1.2c2.4-0.2,4.8-0.2,7.3-0.1c3.4,0.1,4.8,1.8,5.2,4.4C37.9,27.1,30.7,41,29.3,43.2z"/>
<linearGradient id="Path_4547_1_" gradientUnits="userSpaceOnUse" x1="14.3721" y1="29.0091" x2="8.9864" y2="14.2123">
	<stop  offset="0" style="stop-color:#F88724"/>
	<stop  offset="8.817631e-02" style="stop-color:#F77B2E"/>
	<stop  offset="0.5092" style="stop-color:#F1475B"/>
	<stop  offset="0.826" style="stop-color:#ED2677"/>
	<stop  offset="1" style="stop-color:#EC1A81"/>
</linearGradient>
<path id="Path_4547" class="st4" d="M11.3,24.7c0.4,1.7,0.8,3.2,1.2,4.6c-2.6,1.5-5.6,2.3-8.6,2.3c-0.8-1-1.5-2.2-2.2-3.3
	c-1.2-2.9,0.8-4.4,2.1-6c2.1-2.1,4.4-3.8,7-5.1l0,0c3.5-1.2,7.1-2,10.7-2.5C10.9,19.6,11.2,24,11.3,24.7z"/>
<linearGradient id="Path_4549_1_" gradientUnits="userSpaceOnUse" x1="32.3026" y1="35.1074" x2="13.0685" y2="15.8733">
	<stop  offset="0.2749" style="stop-color:#2D5CAC"/>
	<stop  offset="1" style="stop-color:#2AA2DF"/>
</linearGradient>
<path id="Path_4549" class="st5" d="M30.1,37.3c1.1-10.1-1.4-12.8-3-13.9c-1.9-1.4-6,1-11.9,4.5c-1,0.6-1.8,1-2.6,1.5
	c-0.4-1.4-0.9-3-1.2-4.6c-0.1-0.7-0.4-5.1,10.3-10c2.7-0.1,5,0.3,6.4,2.1C30.5,19.7,32.8,25.1,30.1,37.3z"/>
<path id="Path_4550" class="st6" d="M17,24.8v0.9c0-0.2,0-0.4,0-0.6C17,25,17,24.9,17,24.8z"/>
<path id="Path_4551" class="st6" d="M24.8,35.4c-1.1,1.2-2.6,1.9-4.2,1.8c-3.1,0-5.7-2.5-5.7-5.7c0,0,0,0,0,0l0,0c0-0.2,0-0.4,0-0.6
	l0,0v-8.2l0,0v-7.3c0.7-0.2,1.4-0.5,2.1-0.7v10.8c0,0.5,0,0.9,0,1.2c0,0.1,0,0.2,0,0.3l0,0c1.9-1.5,4.5-1.7,6.5-0.5v2.9
	c-1.1-1.6-3.3-2-4.9-0.9c-1.6,1.1-2,3.3-0.9,4.9c0.7,1,1.7,1.5,2.9,1.5c1.3,0,2.5-0.7,3.2-1.8C23.8,34.1,24.2,34.8,24.8,35.4z"/>
<path id="Path_4552" class="st6" d="M28.5,37.2c-2.6-0.3-4.5-2.4-4.7-5v-9.5c1.1,0.1,1.9,0.9,2.1,2c0,0.1,0,0.3,0,0.5V26
	c0.2,0,0.4,0,0.7,0c1.8,0,1.7,2,1.7,2H26v4.2l0,0c0.3,1.3,1.2,2.3,2.4,2.8C28.4,35,28.5,36.1,28.5,37.2z"/>
<path id="Path_4553" class="st6" d="M17,25.7v1.5l0,0C16.9,26.8,17,26.2,17,25.7z"/>
<g id="Group_1625">
	<path id="Path_4554" d="M57,34.2c0,0.7-0.1,1.4-0.4,2c-0.5,1.2-1.5,2.2-2.7,2.8c-0.6,0.3-1.3,0.4-2,0.4h-8.6V22.3h8.6
		c0.7,0,1.4,0.1,2,0.4c1.2,0.5,2.2,1.5,2.7,2.7c0.3,0.6,0.4,1.3,0.4,2c0,0.3,0,0.7-0.1,1c-0.1,0.3-0.2,0.7-0.4,1
		c-0.2,0.3-0.4,0.6-0.6,0.9c-0.2,0.2-0.5,0.5-0.7,0.6c0.3,0.2,0.5,0.4,0.8,0.6c0.2,0.3,0.4,0.5,0.6,0.8c0.2,0.3,0.3,0.7,0.4,1
		C57,33.6,57,33.9,57,34.2z M46.8,29.1h5.1c0.5,0,0.9-0.2,1.2-0.5c0.2-0.2,0.3-0.3,0.4-0.5c0.1-0.2,0.1-0.4,0.1-0.7
		c0-0.9-0.7-1.7-1.7-1.7h-5.2V29.1z M46.8,36h5.1c0.9,0,1.7-0.8,1.7-1.7c0-0.9-0.8-1.7-1.7-1.7h-5.1V36z"/>
	<path id="Path_4555" d="M62.6,39.4h-3.3V21.5h3.3V39.4z"/>
	<path id="Path_4556" d="M74.5,37.9c-0.3,0.2-0.5,0.5-0.8,0.7c-0.3,0.2-0.6,0.4-0.9,0.5c-0.3,0.2-0.7,0.3-1,0.4
		c-0.3,0.1-0.7,0.1-1,0.1c-0.8,0-1.5-0.1-2.2-0.4c-1.4-0.6-2.5-1.7-3.1-3.1c-0.3-0.8-0.5-1.6-0.4-2.5v-7.1h3.2v7.1
		c0,0.4,0.1,0.8,0.2,1.2c0.1,0.3,0.3,0.6,0.5,0.8c0.2,0.2,0.5,0.4,0.8,0.5c0.3,0.1,0.7,0.2,1,0.2c0.3,0,0.7-0.1,0.9-0.2
		c0.3-0.2,0.6-0.4,0.8-0.6c0.2-0.3,0.4-0.6,0.5-0.9c0.1-0.3,0.2-0.7,0.2-1v-7.1h3.3v12.8h-0.8L74.5,37.9z"/>
	<path id="Path_4557" d="M83.9,36.3c0.3,0.1,0.5,0.1,0.8,0.1c0.3,0,0.6,0,0.9-0.1c0.3-0.1,0.6-0.2,0.8-0.4c0.3-0.2,0.5-0.4,0.7-0.6
		c0.2-0.2,0.4-0.5,0.5-0.8l2.4,2.4c-0.3,0.4-0.6,0.8-1,1.1c-0.8,0.7-1.7,1.2-2.7,1.4c-0.5,0.1-1,0.2-1.6,0.2c-1.7,0-3.4-0.7-4.6-1.9
		c-0.6-0.6-1.1-1.3-1.4-2.1c-0.3-0.9-0.5-1.8-0.5-2.7c0-0.9,0.2-1.9,0.5-2.8c0.6-1.6,1.9-2.9,3.5-3.5c0.8-0.3,1.7-0.5,2.5-0.5
		c0.5,0,1.1,0.1,1.6,0.2c1,0.3,1.9,0.8,2.7,1.5c0.4,0.4,0.7,0.7,1,1.2L83.9,36.3z M85.6,29.5c-0.1-0.1-0.3-0.1-0.4-0.1h-0.5
		c-0.4,0-0.9,0.1-1.3,0.2c-0.4,0.2-0.7,0.4-1,0.7c-0.3,0.3-0.5,0.7-0.7,1.1c-0.2,0.5-0.3,0.9-0.2,1.4c0,0.1,0,0.3,0,0.4
		c0,0.2,0,0.3,0.1,0.5c0,0.2,0.1,0.3,0.1,0.5c0,0.1,0.1,0.3,0.2,0.4L85.6,29.5z"/>
	<path id="Path_4558" d="M107.9,39.4h-3.2v-8.1c0-0.9-0.7-1.6-1.6-1.6c0,0,0,0,0,0l0,0c-0.4,0-0.8,0.2-1.1,0.5
		c-0.3,0.3-0.5,0.7-0.5,1.2v8.1h-3.3v-8.1c0-0.9-0.7-1.6-1.6-1.6c0,0,0,0,0,0l0,0c-0.4,0-0.8,0.2-1.1,0.5c-0.3,0.3-0.5,0.7-0.5,1.2
		v8.1h-3.3V26.6h0.8l0.9,1c0.4-0.4,0.9-0.7,1.5-0.9c1.1-0.4,2.3-0.4,3.5,0c0.6,0.2,1.1,0.6,1.5,1.2c0.2-0.3,0.4-0.5,0.7-0.7
		c0.2-0.2,0.5-0.3,0.8-0.5c0.3-0.1,0.6-0.2,0.9-0.3c0.3,0,0.6-0.1,0.9-0.1c2,0,3.7,1.2,4.5,3c0.3,0.6,0.4,1.3,0.4,1.9V39.4z"/>
	<path id="Path_4559" d="M122.7,39.4h-0.8l-1.3-1.8c-0.3,0.3-0.7,0.5-1,0.8c-0.3,0.2-0.7,0.5-1.1,0.6c-0.4,0.2-0.8,0.3-1.2,0.4
		c-0.4,0.1-0.8,0.2-1.2,0.2c-0.9,0-1.7-0.1-2.5-0.5c-0.8-0.3-1.5-0.7-2.1-1.3c-0.6-0.6-1.1-1.3-1.4-2.1c-0.4-0.9-0.5-1.9-0.5-2.9
		c0-0.9,0.2-1.9,0.5-2.7c0.3-0.8,0.8-1.5,1.4-2.1c0.6-0.6,1.3-1.1,2.1-1.4c0.8-0.3,1.7-0.5,2.5-0.5c0.4,0,0.8,0.1,1.2,0.2
		c0.4,0.1,0.8,0.2,1.2,0.4c0.4,0.2,0.7,0.4,1.1,0.6c0.4,0.2,0.7,0.5,1,0.8l1.3-1.5h0.8L122.7,39.4z M119.4,32.9
		c0-0.4-0.1-0.9-0.2-1.3c-0.2-0.4-0.4-0.8-0.7-1.1c-0.3-0.3-0.6-0.6-1-0.8c-0.4-0.2-0.8-0.3-1.3-0.3c-0.4,0-0.9,0.1-1.3,0.2
		c-0.4,0.1-0.7,0.4-1,0.7c-0.3,0.3-0.5,0.7-0.7,1.1c-0.3,1-0.3,2,0,3c0.1,0.4,0.4,0.8,0.7,1.1c0.3,0.3,0.6,0.5,1,0.7
		c0.4,0.2,0.8,0.2,1.3,0.2c0.4,0,0.9-0.1,1.3-0.3c0.4-0.2,0.7-0.5,1-0.8c0.3-0.3,0.5-0.7,0.7-1.1C119.3,33.8,119.4,33.3,119.4,32.9
		L119.4,32.9z"/>
	<path id="Path_4560" d="M128.5,44.3h-3.3V26.6h0.8l1.3,1.5c0.3-0.3,0.7-0.5,1-0.8c0.3-0.2,0.7-0.4,1.1-0.6c0.4-0.2,0.8-0.3,1.2-0.4
		c0.4-0.1,0.8-0.2,1.2-0.1c0.9,0,1.7,0.2,2.5,0.5c1.6,0.6,2.9,1.9,3.5,3.5c0.4,0.9,0.5,1.8,0.5,2.8c0,1-0.2,1.9-0.5,2.8
		c-0.3,0.8-0.8,1.5-1.4,2.1c-0.6,0.6-1.3,1-2.1,1.3c-0.8,0.3-1.7,0.5-2.5,0.5c-0.3,0-0.6,0-0.9-0.1c-0.3-0.1-0.6-0.1-0.8-0.2
		c-0.3-0.1-0.5-0.2-0.8-0.4s-0.5-0.3-0.8-0.4L128.5,44.3z M135,32.9c0-0.5-0.1-1-0.2-1.5c-0.2-0.4-0.4-0.8-0.7-1.1
		c-0.3-0.3-0.6-0.5-1-0.7c-0.8-0.3-1.7-0.3-2.5,0c-0.4,0.2-0.7,0.4-1,0.7c-0.3,0.3-0.5,0.7-0.7,1.1c-0.2,0.5-0.3,1-0.3,1.5
		c0,0.5,0.1,1,0.3,1.4c0.2,0.4,0.4,0.8,0.7,1.1c0.3,0.3,0.6,0.5,1,0.7c0.8,0.3,1.7,0.3,2.5,0c0.4-0.2,0.7-0.4,1-0.7
		c0.3-0.3,0.5-0.7,0.7-1.1C134.9,33.8,135,33.4,135,32.9z"/>
	<path id="Path_4561" d="M143.4,39.4h-3.3V21.5h3.3V39.4z"/>
	<path id="Path_4562" d="M150.9,36.3c0.1,0,0.3,0.1,0.4,0.1c0.1,0,0.3,0,0.4,0c0.3,0,0.6,0,0.9-0.1c0.3-0.1,0.6-0.2,0.8-0.4
		c0.3-0.2,0.5-0.4,0.7-0.6c0.2-0.2,0.4-0.5,0.5-0.8l2.4,2.4c-0.3,0.4-0.6,0.8-1,1.2c-0.8,0.7-1.7,1.2-2.7,1.4
		c-0.5,0.1-1,0.2-1.6,0.2c-1.7,0-3.4-0.7-4.6-1.9c-0.6-0.6-1.1-1.3-1.4-2.1c-0.3-0.9-0.5-1.8-0.5-2.7c0-1,0.2-1.9,0.5-2.8
		c0.6-1.6,1.9-2.9,3.5-3.5c0.8-0.3,1.7-0.5,2.5-0.5c0.5,0,1.1,0.1,1.6,0.2c1,0.3,1.9,0.8,2.7,1.4c0.4,0.3,0.7,0.7,1,1.2L150.9,36.3z
		 M152.6,29.5c-0.1-0.1-0.3-0.1-0.4-0.1h-0.5c-0.4,0-0.9,0.1-1.3,0.2c-0.4,0.2-0.7,0.4-1,0.7c-0.3,0.3-0.5,0.7-0.7,1.1
		c-0.2,0.5-0.3,0.9-0.2,1.4c0,0.1,0,0.3,0,0.4c0,0.2,0,0.3,0.1,0.5c0,0.2,0.1,0.3,0.1,0.5c0,0.1,0.1,0.3,0.1,0.4L152.6,29.5z"/>
	<path id="Path_4563" d="M162.5,39.4H159V22.3h3.4L162.5,39.4z"/>
	<path id="Path_4564" d="M172.8,39.4h-3.4V25.7h-5.1v-3.4H178v3.4h-5.1L172.8,39.4z"/>
</g>
<linearGradient id="SVGID_2_" gradientUnits="userSpaceOnUse" x1="10.83" y1="17.23" x2="10.83" y2="17.23">
	<stop  offset="0" style="stop-color:#A82C99"/>
	<stop  offset="0.1989" style="stop-color:#9C3099"/>
	<stop  offset="0.7024" style="stop-color:#813A9A"/>
	<stop  offset="1" style="stop-color:#773D9A"/>
</linearGradient>
<path class="st7" d="M10.8,17.2"/>
</svg>
