<?xml version="1.0" encoding="utf-8"?>
<!-- Generator: Adobe Illustrator 25.3.0, SVG Export Plug-In . SVG Version: 6.00 Build 0)  -->
<svg version="1.1" id="Layer_1" xmlns="http://www.w3.org/2000/svg" xmlns:xlink="http://www.w3.org/1999/xlink" x="0px" y="0px"
	 viewBox="0 0 180 60" style="enable-background:new 0 0 180 60;" xml:space="preserve">
<style type="text/css">
	.st0{fill:#9CA3AF;stroke:#9CA3AF;stroke-width:0.5;stroke-miterlimit:10;}
	.st1{fill:#45E5F1;}
	.st2{fill:#43E5F1;}
</style>
<path class="st0" d="M28.4,39.4c0,1,0,2.1,0,3.1c0,1.4-0.1,2.9-0.2,4.3c0,0.8-0.1,1.7-0.1,2.5c-0.1,0.6,0.4,1.2,1.1,1.3
	c0.1,0,0.1,0,0.2,0c0.2,0,0.5,0.1,0.7,0.1L30,51.4h-5.2v-0.7c0.3,0,0.6,0,0.9-0.1c0.7-0.1,1.3-0.8,1.2-1.6c0-1.3,0.1-2.6,0.2-3.9
	s0.1-2.7,0.2-4c0-0.9,0.1-1.8,0.1-2.8c0.1-1-0.6-1.9-1.5-2c-0.1,0-0.2,0-0.3,0c-0.2,0-0.4-0.1-0.7-0.1l0.1-0.7c1.3,0,2.6,0,3.9,0
	c0.2,0,0.3,0.1,0.4,0.3c0.5,1.2,1,2.4,1.6,3.5c0.9,2.1,1.8,4.1,2.8,6.1l1.2,2.7l0.2,0.3c1-2.2,1.9-4.3,2.8-6.5s1.7-4.1,2.6-6.2
	c0.1-0.1,0.2-0.2,0.4-0.3c1.3,0,2.6,0,3.9,0v0.7c-0.4,0.1-0.8,0.1-1.2,0.2c-0.6,0.1-0.9,0.6-0.9,1.2c0,0.9,0,1.8,0,2.7
	s0,1.8,0.1,2.7s0,1.7,0.1,2.5s0,1.8,0.1,2.7c0,0.4,0,0.9,0.1,1.3c0.1,0.6,0.4,0.9,1.2,1.1c0.3,0,0.6,0.1,1,0.1v0.7h-6v-0.7l0.7-0.1
	c0.6-0.1,1-0.6,1-1.2c0-1.3,0-2.6-0.1-3.9c0-0.6-0.1-1.2-0.1-1.9c0-1,0-2.1-0.1-3.1c0-0.6-0.1-1.2-0.1-1.9c-0.3,0.6-0.5,1.1-0.8,1.7
	c-0.5,1.1-0.9,2.2-1.4,3.2c-0.6,1.4-1.2,2.8-1.8,4.2c-0.5,1.2-1,2.4-1.5,3.6c-0.1,0.1-0.2,0.2-0.3,0.2c-0.1,0.1-0.3,0.1-0.5,0.1
	c-0.1,0-0.2-0.1-0.3-0.2c-0.8-1.6-1.5-3.3-2.2-5c-0.9-2.1-1.9-4.1-2.8-6.2l-0.4-0.9L28.4,39.4z"/>
<path class="st0" d="M142.3,36.2v-0.7h5.9v0.7c-0.3,0.1-0.7,0.2-1,0.2c-0.5,0.1-0.8,0.5-0.8,1c0,1.7,0,3.3,0,5h8.6V42
	c0-1.5,0-3,0-4.5c0-0.8-0.4-1.1-1.1-1.2l-0.9-0.1v-0.7h5.9v0.7c-0.2,0-0.4,0.1-0.7,0.1c-1,0.1-1.2,0.7-1.3,1.5c0,3.9,0,7.8,0,11.6
	c0,0.6,0.4,1.1,1,1.2c0,0,0.1,0,0.1,0l0.9,0.1v0.7h-5.9l-0.1-0.6c0.5-0.1,0.9-0.2,1.3-0.3c0.4-0.2,0.7-0.6,0.6-1.1
	c0-1.9,0-3.8,0-5.8h-8.6V45c0,1.5,0,3,0,4.4c0,0.8,0.4,1,1.1,1.2c0.3,0,0.6,0.1,0.9,0.1v0.7h-5.9l-0.1-0.7c0.4-0.1,0.8-0.1,1.1-0.2
	c0.4-0.1,0.8-0.4,0.8-0.9c0.1-0.3,0.1-0.6,0.1-0.9c0-3.7,0-7.3,0-11c0-0.3,0-0.6-0.2-0.9c-0.2-0.2-0.5-0.4-0.9-0.5
	C143,36.2,142.6,36.2,142.3,36.2z"/>
<path class="st0" d="M72.1,36.2v-0.7h0.3c1,0,2.1,0,3.1,0c1.3,0,2.6-0.2,3.9-0.1c1.7,0,3.4,0.4,5,1.1c1.8,0.9,3.1,2.6,3.4,4.5
	c0.4,1.9,0.2,4-0.7,5.8c-0.9,1.8-2.4,3.2-4.2,3.9c-1.7,0.7-3.6,1-5.5,0.9c-0.8,0-1.7-0.2-2.5-0.2s-1.3,0-2,0.1h-0.8v-0.7
	c0.3,0,0.7-0.1,1-0.1c0.8-0.2,1.1-0.7,1.1-1.6c0-3.9,0-7.7,0-11.6c0-0.7-0.4-1.1-1.2-1.2L72.1,36.2z M76.3,43.2V49
	c-0.1,0.7,0.4,1.4,1.1,1.5c0,0,0.1,0,0.1,0c0.8,0.1,1.5,0.1,2.3,0c1.2-0.1,2.4-0.6,3.4-1.5c1.7-1.5,2.6-3.7,2.5-5.9
	c0-0.6-0.1-1.1-0.2-1.7c-0.3-1.9-1.5-3.5-3.2-4.3c-1.2-0.6-2.5-0.9-3.9-0.7c-0.5,0.1-1.1,0.2-1.6,0.4c-0.3,0.1-0.3,0.3-0.3,0.5
	C76.4,39.2,76.3,41.2,76.3,43.2L76.3,43.2z"/>
<path class="st0" d="M102.2,36.2v-0.7h0.3c1.1,0,2.2,0,3.2,0c0.9,0,1.8-0.2,2.7-0.1c1.3,0,2.6,0.3,3.7,1c0.9,0.6,1.4,1.5,1.4,2.6
	c0.1,1.4-0.4,2.8-1.5,3.7c-0.5,0.4-1,0.7-1.6,1.1c0.7,1.2,1.4,2.6,2.2,3.9c0.4,0.8,1,1.5,1.5,2.2c0.4,0.5,0.9,0.8,1.5,0.9
	c0.2,0,0.4,0.1,0.7,0.1v0.8c-0.8,0-1.7-0.1-2.5-0.1c-0.4,0-0.8,0-1.2,0.1c-0.2,0-0.4-0.1-0.5-0.3l-3.4-6.3c-0.2-0.4-0.7-0.7-1.1-0.7
	h-1.3V47c0,0.8,0,1.6,0,2.4s0.5,1,1.1,1.2c0.4,0.1,0.7,0.1,1.1,0.1v0.7h-6.1l0,0c0-0.6,0-0.6,0.6-0.7c1-0.2,1.2-0.6,1.3-1.3
	c0-0.4,0.1-0.8,0.1-1.1c0-3.5,0-7,0-10.5c0-1-0.4-1.3-1.3-1.4C102.7,36.2,102.5,36.2,102.2,36.2z M106.3,43.2c0.7,0,1.5,0,2.2-0.1
	c0.9-0.1,1.7-0.6,2.2-1.4c0.5-0.8,0.6-1.8,0.5-2.7c-0.1-0.9-0.6-1.8-1.5-2.2c-0.8-0.4-1.7-0.5-2.6-0.4c-0.4,0-0.8,0.4-0.8,0.8
	C106.3,39.2,106.3,41.1,106.3,43.2L106.3,43.2z"/>
<path class="st0" d="M57.2,38.9c0,3.2,0,6.2,0,9.3c0,0.4,0,0.8,0.1,1.1c0.1,0.8,0.5,1,1.3,1.2c0.3,0,0.5,0.1,0.8,0.1v0.7H54v-0.7
	c0.3,0,0.6,0,0.9-0.1c0.7-0.2,1.2-0.8,1.2-1.6c0-3.4,0.1-6.7,0.1-10.1c0.1-0.8-0.2-1.6-0.8-2.2c-0.5-0.3-1-0.5-1.6-0.5h-0.2v-0.7
	h1.5c0.4,0,0.8,0,1.3,0c0.7-0.1,1,0.3,1.3,0.7c0.6,0.7,1.1,1.3,1.7,2l2.1,2.5c0.5,0.6,1.1,1.2,1.6,1.9c0.7,0.8,1.4,1.7,2.1,2.5
	s1.5,1.7,2.3,2.6v-0.5c0-2.9,0-5.9,0-8.8c0-0.3,0-0.7-0.1-1c-0.1-0.7-0.7-1.1-1.4-1.1l-0.7-0.1v-0.7h5.4v0.7
	c-0.4,0.1-0.7,0.1-1.1,0.2c-0.5,0.1-0.9,0.6-0.9,1.2c0,0.7-0.1,1.3-0.1,2c0,3.8,0,7.7,0,11.5c0,0.3-0.1,0.5-0.4,0.6
	c-0.6,0.1-0.6,0.1-1.1-0.6c-0.7-0.9-1.4-1.8-2.2-2.7c-0.9-1.1-1.9-2.2-2.8-3.4c-0.7-0.8-1.3-1.5-2-2.3s-1.3-1.6-2-2.3
	C58,39.8,57.6,39.4,57.2,38.9z"/>
<path class="st1" d="M59.9,22.8c1.1,1,1.9,2.5,2,4c0.4,4.2-2.3,7.7-7.1,7.2c-1.9-0.1-3.6-1.1-4.6-2.7c-0.3-0.6-0.6-1.3-0.9-2
	c-0.3,0.5-0.7,1-1.1,1.5c-1.7,2.2-4.6,3.2-7.2,2.4c-2.3-0.6-4-2.4-4.3-4.7c-0.5-2.4,0.1-5,1.7-6.9c0.3-0.4,0.6-0.7,0.9-1.1
	c-1.7-0.2-3.3-1-4.5-2.2c-1.3-1.2-2.1-2.9-2.2-4.7c-0.3-2.2,0.5-4.5,2-6.2c1.6-1.8,4-2.4,6.3-1.8c1.5,0.4,2.9,1.1,4,2
	C45.4,8,45.6,8,45.7,7.6c0.1-0.3,0.1-0.7,0.2-1C46,5.8,45.9,5,46,4.3c0.2-1.8,1.7-3.2,3.5-3.4c2.8-0.5,5.6,0.3,7.6,2.3
	c0.8,0.7,1.4,1.6,1.8,2.5c0.5,1.4,0.4,3-0.3,4.4c-0.2,0.5-0.5,0.9-0.7,1.3h2.3c1.4,0,2.8,0.5,3.8,1.4c1,0.9,1.5,2.1,1.6,3.4
	c0,0.8,0,1.6-0.2,2.4c-0.3,1.6-1.4,3-3,3.5C61.6,22.4,60.7,22.6,59.9,22.8z M58.6,22.5c0-0.4,0.2-0.5,0.5-0.5
	c0.3,0.1,0.6,0.1,0.8,0.1c0.8-0.1,1.5-0.3,2.2-0.6c1.3-0.4,2.3-1.5,2.5-2.9c0.2-0.8,0.3-1.6,0.2-2.4c-0.1-1.8-1.3-3.4-3.1-4
	c-1.4-0.4-3-0.5-4.4-0.1c-0.2,0-0.3,0.1-0.5-0.1s-0.1-0.3,0-0.5c0.4-0.6,0.8-1.3,1.2-2c0.7-1.5,0.6-3.2-0.3-4.6
	c-0.5-0.6-1-1.2-1.6-1.7C54.4,1.6,52,1,49.7,1.4c-1.6,0.2-2.9,1.5-3.1,3.1c-0.1,0.8,0,1.6-0.1,2.4c0,0.4-0.2,0.8-0.4,1.2
	c-0.2,0.4-0.7,0.5-1.1,0.3c-0.1,0-0.1-0.1-0.1-0.1c-1.1-0.9-2.3-1.5-3.7-1.9c-1.8-0.6-3.7-0.3-5.2,0.8c-2,1.5-3,4-2.7,6.4
	c0.4,3.5,3.2,6.2,6.7,6.3c0.2,0,0.3,0,0.4,0.3s-0.1,0.4-0.2,0.5c-2.2,1.7-3.4,4.4-3,7.2c0.2,1.3,0.8,2.5,1.8,3.4
	c1.4,1.3,3.3,1.8,5.2,1.4c1.8-0.4,3.4-1.6,4.3-3.1c0.3-0.5,0.5-1,0.8-1.5c0.1-0.1,0.3-0.2,0.4-0.3c0.1,0.1,0.1,0.2,0.2,0.4
	c0,0.2,0.1,0.4,0.1,0.6c0.2,1.1,0.6,2,1.3,2.8c1.5,1.4,3.5,2,5.5,1.6c1-0.1,2-0.6,2.8-1.3c1.5-1.6,2.1-3.8,1.5-5.9
	C60.8,24.6,59.9,23.3,58.6,22.5z"/>
<path class="st0" d="M121.3,42.5l5.6-0.2V44l-5.6-0.2v2.7c0,0.8,0,1.6,0,2.4c0,0.4,0,0.9,0.4,1.2c0.3,0.2,0.7,0.3,1.1,0.4
	c0.8,0,1.5,0,2.3,0c1.2,0,2.3-0.7,2.8-1.8c0.1-0.3,0.2-0.6,0.4-0.9c0.2-0.5,0.3-0.5,0.8-0.3h0.2l-0.8,4H117v-0.7
	c0.4-0.1,0.9-0.1,1.3-0.2c0.6-0.1,1-0.7,1-1.3V37.3c0-0.6-0.4-1-1.1-1.1l-1-0.1l0.1-0.7h11.1l-0.2,3.8H128c-0.7,0-0.7,0-0.8-0.7
	c0-0.7-0.4-1.4-1-1.8c-0.3-0.2-0.7-0.3-1.1-0.3c-1.1,0-2.2,0-3.2,0c-0.3,0-0.5,0.1-0.5,0.5L121.3,42.5
	C121.3,42.5,121.3,42.5,121.3,42.5z"/>
<path class="st0" d="M139.8,39.6H139c-0.1-0.4-0.2-0.8-0.3-1.2c-0.5-1.7-2.3-2.6-3.9-2.1c0,0,0,0-0.1,0c-1.3,0.3-2.1,1.7-1.7,3
	c0,0,0,0,0,0c0.2,0.9,0.8,1.7,1.7,2.1c1,0.5,2,0.9,2.9,1.4c1.1,0.5,2,1.3,2.6,2.4c0.7,1.4,0.5,3.1-0.4,4.4c-0.9,1.2-2.3,1.9-3.7,2
	c-1.7,0.1-3.3-0.1-4.9-0.6l-0.8-4.2l0.8-0.2c0.4,1.1,1,2.1,1.8,3c0.6,0.6,1.4,0.9,2.2,1c0.8,0.1,1.6-0.1,2.2-0.5
	c1.3-0.9,1.6-2.6,0.7-3.9c-0.1-0.1-0.1-0.2-0.2-0.3c-0.6-0.6-1.3-1.1-2.1-1.4c-1.2-0.5-2.4-1.1-3.4-1.9c-0.8-0.6-1.3-1.5-1.5-2.5
	c-0.2-1.3,0.1-2.6,1-3.5c0.6-0.6,1.4-1.1,2.3-1.3c0.9-0.3,1.9-0.3,2.9-0.2c0.9,0.1,1.8,0.3,2.7,0.5c0.1,0,0.2,0.2,0.2,0.3
	C139.9,37.2,139.9,38.4,139.8,39.6z"/>
<path class="st0" d="M89.8,36.2v-0.7h11l-0.2,3.9h-0.7c-0.2-0.6-0.3-1.2-0.6-1.8c-0.3-0.7-1-1.2-1.8-1.1c-0.9,0-1.9,0-2.8,0
	c-0.5,0-0.7,0.1-0.7,0.7c0,1.9,0,3.8,0,5.8h1.5c0.2,0,0.3-0.1,0.5-0.1c1,0,2.1,0,3.1-0.1c0.3,0,0.4,0.1,0.4,0.4s-0.1,0.8-0.1,1.3
	L94,44.1v0.5c0,1.5,0,3,0,4.5c0,0.3,0,0.5,0.1,0.8c0.1,0.3,0.3,0.6,0.7,0.6c0.6,0.1,1.3,0.2,2,0.3c0,0.1,0,0.3,0,0.4
	c0,0.1-0.2,0.3-0.3,0.3c-1.2,0-2.3-0.1-3.5-0.1c-0.6,0-1.1,0.1-1.7,0.1s-0.9,0-1.4,0l-0.1-0.7c0.4-0.1,0.8-0.1,1.2-0.2
	c0.6-0.1,1-0.7,0.9-1.3c0-4,0-7.9,0-11.9c0-0.6-0.4-1-1.1-1.1L89.8,36.2z"/>
<path class="st0" d="M46.2,36.2v-0.7h6.1v0.6l-1.2,0.3c-0.4,0.1-0.6,0.4-0.7,0.8c-0.1,0.3-0.1,0.6-0.1,0.9v11c0,1.1,0.5,1.3,1.4,1.4
	l0.8,0.1l-0.1,0.7h-6v-0.7l0.9-0.2c0.6-0.1,1-0.6,1-1.2c0-4,0-8,0-12c0-0.6-0.4-0.9-1.1-1L46.2,36.2z"/>
<path class="st2" d="M124.6,54.3c0.1,0,0.1,0,0.2,0c0.8,0,1.6,0,2.3,0c0.7-0.1,1.3,0.4,1.3,1.1c0,0,0,0.1,0,0.1
	c0,0.6-0.4,1.1-0.9,1.4l-0.2,0.1v0.1c0.4,0.5,0.8,1,1.2,1.5c0.1,0.2,0.3,0.3,0.5,0.4c0.5,0.3,0.9,0.2,1.1-0.3
	c0.6-1.4,1.2-2.8,1.8-4.2c0.1-0.1,0.3-0.2,0.5-0.2s0.2,0.2,0.3,0.3c0.5,1.2,1,2.5,1.5,3.7c0.1,0.4,0.4,0.8,0.8,1h-1.9
	c0.6-0.3,0.6-0.3,0.4-1c-0.3-0.9-0.4-0.9-1.3-0.7c-0.3,0-0.6,0-0.9,0c-0.1,0-0.3,0.1-0.4,0.2c-0.1,0.2-0.2,0.4-0.2,0.6
	c-0.2,0.6-0.2,0.6,0.4,0.8c-0.1,0-0.2,0.1-0.3,0.1c-0.7,0.1-1.3,0.1-2,0.1c-0.3,0-0.6-0.2-0.8-0.4c-0.4-0.4-0.8-0.9-1.1-1.3
	c-0.2-0.4-0.7-0.6-1.1-0.4c0,0.5,0,1,0,1.6c0,0.1,0.2,0.2,0.4,0.3s0.2,0,0.3,0.1h-2.1v-0.1c0.7,0,0.7-0.5,0.7-1c0-1,0-1.9,0-2.9
	C125.2,54.8,125.2,54.4,124.6,54.3z M125.9,56.9c0.6,0,1.3,0.1,1.6-0.5c0.3-0.4,0.3-1,0-1.4c-0.4-0.6-1-0.5-1.6-0.4L125.9,56.9z
	 M131.2,57.2h1.9l-0.9-2.2h-0.1L131.2,57.2z"/>
<path class="st2" d="M138,54.3c0.6-0.2,1.3,0,1.8,0.5c1,1.2,2.2,2.3,3.3,3.4c0,0,0.1-0.1,0.1-0.1c0-1.1,0-2.1,0-3.2
	c0-0.3-0.2-0.5-0.5-0.5c-0.1,0-0.1,0-0.2-0.1h1.7v0.1c-0.1,0-0.1,0.1-0.2,0.1c-0.3,0-0.4,0.2-0.4,0.5c0,1.4,0,2.8,0,4.2
	c0,0.1,0,0.2-0.1,0.2c-0.2-0.1-0.4-0.2-0.5-0.3c-1.2-1.2-2.4-2.4-3.6-3.7l-0.2-0.2c0,0.1,0,0.2,0,0.3c0,0.9,0,1.8,0,2.8
	c0,0.7,0,0.7,0.7,1h-1.8c0.7-0.1,0.6-0.6,0.6-1.1c0-0.9,0-1.8,0-2.7S138.7,54.6,138,54.3z"/>
<path class="st2" d="M152.3,58.2c0-1.2,0-2.3,0-3.5c0-0.4-0.4-0.3-0.6-0.5h1.7v0.1c-0.1,0-0.1,0-0.2,0c-0.4,0-0.4,0.2-0.4,0.5
	c0,1.4,0,2.8,0,4.2c-0.3,0.2-0.4,0-0.6-0.1l-3.6-3.7l-0.3-0.3V56c0,0.8,0,1.6,0,2.4c0,0.6,0,0.6,0.6,0.7c0.1,0,0.1,0.1,0.2,0.1h-1.8
	v-0.1c0.6-0.2,0.6-0.2,0.6-0.9c0-0.9,0-1.8,0-2.7s0-0.9-0.7-1.2c0.6-0.2,1.2-0.1,1.6,0.3L152.3,58.2z"/>
<path class="st2" d="M158.7,55.6c-0.1-0.1-0.2-0.1-0.2-0.2c-0.3-0.7-1.2-1.1-1.9-0.8c-1.2,0.2-1.9,1.3-1.7,2.5c0,0,0,0.1,0,0.1
	c0.1,1.1,1,1.9,2.1,1.8c0,0,0.1,0,0.1,0c0.1,0,0.2,0,0.2,0c0.3-0.1,0.7-0.1,0.8-0.2c0.1-0.4,0-0.9-0.1-1.3c0-0.2-0.4-0.2-0.6-0.4h2
	c-0.8,0.3-0.6,0.9-0.6,1.4c0,0.3-0.1,0.5-0.4,0.6c-0.8,0.3-1.6,0.4-2.4,0.3c-1.3-0.2-2.2-1.4-2-2.7c0.1-0.4,0.2-0.8,0.5-1.1
	c0.6-0.8,1.5-1.2,2.5-1.2c0.5,0,0.9,0,1.4,0.1c0.1,0,0.2,0.1,0.2,0.2C158.7,54.8,158.7,55.2,158.7,55.6z"/>
<path class="st2" d="M124,54.3v1.2c-0.3-0.3-0.2-0.8-0.8-0.9c-0.4,0-0.8,0-1.2,0v3.9c0,0.6,0,0.6,0.6,0.6c0.1,0,0.1,0,0.2,0.1h-2.3
	v0c0.1,0,0.1-0.1,0.2-0.1c0.4,0,0.6-0.2,0.6-0.6c0-1.3,0-2.6,0-4c-0.8,0-1.6-0.2-1.8,1l-0.2-0.1c0.1-0.4,0.1-0.8,0.2-1.2
	c0,0,0.1,0,0.2,0h4.2L124,54.3z"/>
<path class="st2" d="M137.5,59.2h-2.1c0-0.1,0-0.1,0.1-0.1c0.6-0.1,0.6-0.2,0.6-0.7c0-1,0-2,0-3s0.1-0.8-0.7-1h2.1c0,0,0,0.1,0,0.1
	c-0.6,0.1-0.6,0.1-0.6,0.8v3C136.9,58.9,136.9,58.9,137.5,59.2z"/>
<path class="st2" d="M146.8,59.2h-2.1c0-0.1,0-0.1,0.1-0.1c0.6-0.1,0.6-0.2,0.6-0.7c0-1,0-2,0-3s0.1-0.8-0.7-1h2.1c0,0,0,0.1,0,0.1
	c-0.6,0.1-0.6,0.1-0.6,0.8c0,1,0,2,0,3C146.1,58.9,146.1,58.9,146.8,59.2z"/>
<path class="st1" d="M57.4,19.2c0-2.4-1.1-4.8-3-6.3c-1.1-1-2.4-1.7-3.8-2.1c-2.9-0.8-6,0.5-7.4,3.1c-0.8,1.3-1.3,2.8-1.5,4.4
	c0,0.2,0,0.7-0.4,0.6S41,18.6,41,18.4c0.2-2,1-3.9,2.3-5.6c1.1-1.4,2.7-2.4,4.5-2.6c2.2-0.3,4.3,0.3,6.1,1.7c1.9,1.2,3.2,3,3.8,5.2
	c0.7,2.2,0.3,4.6-1.1,6.4c-1.9,2.5-5.5,3.9-8.4,3c-3-0.8-5.2-3.3-5.9-6.3c-0.8-3.6,1.9-7.2,5.5-7.9c2.1-0.4,4.2,0.2,5.8,1.5
	c1.2,1,2,2.3,2.3,3.9c0.6,3.1-1.5,6.2-4.6,6.8c-0.5,0.1-0.9,0.1-1.4,0.1c-3-0.1-5.4-2.5-5.3-5.5c0-0.5,0.1-0.9,0.2-1.4
	c0.4-1.7,1.8-2.9,3.6-3.1c1.3-0.3,2.7-0.1,3.9,0.6c1.2,0.9,1.8,2.5,1.4,4c-0.3,1.4-1.4,2.5-2.8,2.8c-1.4,0.2-2.8-0.3-3.6-1.5
	c-0.7-0.9-0.6-2.2,0.2-3c0.8-0.9,2.2-1,3.2-0.3c0.4,0.3,0.6,0.6,0.8,1c0.2,0.5,0,1.2-0.6,1.4c-0.3,0.1-0.7,0.2-1,0.3
	c-0.2,0.1-0.5,0-0.5-0.2s0.2-0.3,0.3-0.4s0.5-0.2,0.8-0.3c0.5-0.2,0.5-0.6,0.2-1c-0.5-0.7-1.4-1-2.2-0.7c-0.7,0.3-1.2,1-1.1,1.7
	c0.1,0.4,0.2,0.7,0.4,1c0.9,1.4,2.8,1.8,4.1,0.9c1-0.7,1.6-1.9,1.3-3.1c-0.1-1.2-0.9-2.3-2-2.7c-1.5-0.5-3.1-0.3-4.3,0.6
	c-1.2,0.9-1.8,2.3-1.5,3.8c0.1,0.3,0.1,0.6,0.2,0.8c0.5,1.9,2.1,3.3,4,3.5c2.8,0.4,5.5-1.5,5.9-4.3c0-0.2,0.1-0.4,0.1-0.6
	c0-1.7-0.7-3.4-2-4.5c-2.5-2.3-6.3-2.3-8.7,0c-2.3,2.2-2.6,5.9-0.5,8.4c1,1.5,2.6,2.6,4.4,3.1c2,0.5,4.1,0,5.8-1.2
	c1.5-0.9,2.6-2.4,2.9-4.2C57.4,20,57.4,19.6,57.4,19.2z"/>
</svg>
