<?xml version="1.0" encoding="utf-8"?>
<!-- Generator: Adobe Illustrator 25.3.0, SVG Export Plug-In . SVG Version: 6.00 Build 0)  -->
<svg version="1.1" id="Layer_1" xmlns="http://www.w3.org/2000/svg" xmlns:xlink="http://www.w3.org/1999/xlink" x="0px" y="0px"
	 viewBox="0 0 180 60" style="enable-background:new 0 0 180 60;" xml:space="preserve">
<style type="text/css">
	.st0{fill:#004BA6;}
	.st1{fill:#E66312;}
</style>
<path class="st0" d="M3.6,30.8c0.1-0.2,0.2-0.4,0.2-0.6c0.6-3.3,2.1-6.3,4.5-8.7c0.8-1.1,2.4-1.3,3.5-0.4s1.3,2.4,0.4,3.5
	c-0.1,0.1-0.2,0.3-0.3,0.4c-4.6,4.8-4.5,12.5,0.3,17.1s12.5,4.5,17.1-0.3c4.5-4.7,4.5-12.1,0-16.8c-1-0.9-1.2-2.4-0.4-3.4
	c0.8-1.1,2.4-1.2,3.4-0.4c0.1,0.1,0.2,0.2,0.3,0.3c2.6,2.6,4.3,6,4.7,9.6c1.1,9.3-5.6,17.8-15,18.8c-8.9,1-17-5-18.6-13.8
	c0-0.2-0.1-0.4-0.2-0.6L3.6,30.8z"/>
<path class="st0" d="M148.7,41.9c-0.1,0.2-0.1,0.5-0.2,0.7c-1.1,3.9-4.9,6.4-8.9,5.9c-4.3-0.3-7.5-4-7.2-8.3c0.2-3.4,2.6-6.2,5.9-7
	c4-1.2,8.1,0.8,9.8,4.6c0.2,0.5,0.4,1,0.6,1.5L148.7,41.9z M143.7,40.8c0.1-1.7-1.3-3.2-3-3.3c0,0,0,0-0.1,0
	c-1.8-0.1-3.3,1.3-3.4,3.1c-0.1,1.8,1.3,3.3,3.1,3.4s3.3-1.3,3.4-3.1C143.7,40.8,143.7,40.8,143.7,40.8z"/>
<path class="st1" d="M29,11.7c0.1,0.1,0.2,0.2,0.3,0.2c1.2,0.6,1.7,2.1,1.1,3.3c-0.4,0.8-1.3,1.4-2.2,1.4c-1.6,0-3.1,0-4.7,0
	c-0.2,0-0.3,0-0.6,0v0.8c0,5.2,0,10.4,0,15.7c0.1,1.3-1,2.5-2.3,2.5c-1,0-2-0.6-2.4-1.5c-0.1-0.4-0.2-0.8-0.2-1.3
	c0-5.1,0-10.1,0-15.2v-1h-5c-1.4,0.1-2.5-0.9-2.6-2.3c-0.1-1,0.5-2,1.5-2.4c0.1,0,0.1-0.1,0.1-0.1H29z"/>
<path class="st0" d="M85.3,21.2l0.6,0.2c1.5,0.5,2.5,1.8,2.6,3.4c0.2,1.7-0.7,3.3-2.3,3.9c-1.1,0.5-2.3,0.8-3.5,0.8c-3,0.1-6,0-9,0
	c-0.1,0-0.2,0-0.3,0V13.4h0.7c2.8,0,5.7,0,8.5,0c0.9,0,1.9,0.2,2.8,0.4c1.5,0.4,2.6,1.8,2.6,3.3c0.1,1.6-0.7,3.1-2.2,3.7L85.4,21
	L85.3,21.2z M78.6,25.5c1,0,1.9,0,2.8,0s1.3-0.5,1.4-1.2S82.3,23,81.4,23s-1.9,0-2.9,0L78.6,25.5z M78.6,19.8c1,0,2-0.1,2.9-0.2
	c0.5-0.1,0.9-0.6,0.9-1.1c0.1-0.5-0.3-1-0.9-1.1c-1-0.1-2-0.1-3-0.2L78.6,19.8z"/>
<path class="st0" d="M99.1,48.3c-1.9,0-3.6,0-5.3,0c-0.3,0-0.5-0.2-0.7-0.4c-0.7-1-1.4-2.1-2.1-3.2c-0.5-0.8-0.5-0.8-1.6-0.6v4.2h-5
	v-15h1c2.2,0,4.4-0.1,6.5,0c1.1,0,2.3,0.2,3.4,0.6c1.8,0.6,3,2.2,3.1,4c0.3,1.9-0.5,3.8-2.1,4.8c-0.3,0.2-0.5,0.3-0.8,0.5L99.1,48.3
	z M89.5,40.5c1,0,2,0,2.9-0.2c0.7-0.1,1.2-0.7,1.1-1.4c0,0,0,0,0,0c0-0.7-0.5-1.2-1.2-1.2c0,0,0,0,0,0c-0.9-0.1-1.9,0-2.8,0V40.5z"
	/>
<path class="st0" d="M160.7,13.5h5.3V19h5v-5.6h5.4v16.1H171v-5.8h-5v5.8h-5.4L160.7,13.5z"/>
<path class="st0" d="M141.7,29.6h-13.6V13.5h13.6V18h-8.2v1.8h7.7v3.5h-7.7V25h8.2L141.7,29.6z"/>
<path class="st0" d="M66.5,23.7h-2.6v-3.5h7.4v3.6c0,1,0,2.1,0,3.1c0,0.3-0.1,0.5-0.3,0.7c-3.6,3.1-10,2.9-13.3-0.5
	c-2.1-2.2-2.8-5.3-1.8-8.2c0.8-2.9,3.3-5.1,6.3-5.6c2.7-0.7,5.6-0.2,7.9,1.5c0.1,0.1,0.2,0.2,0.3,0.3l-2.7,3.7
	c-0.9-0.7-2.1-1.1-3.3-1c-1.9,0-3.6,1.5-3.6,3.4c-0.3,2,1.2,3.9,3.2,4.1c0.1,0,0.1,0,0.2,0c0.3,0,0.7,0,1,0
	C66.5,25.2,66.5,25.2,66.5,23.7z"/>
<path class="st0" d="M117.5,48.3c-1.7,0-3.4,0-5,0c-0.2,0-0.4-0.2-0.5-0.4c-0.2-0.5-0.3-1.2-0.6-1.5s-1.1-0.1-1.7-0.1c-1,0-2,0-3,0
	c-0.3-0.1-0.6,0.1-0.7,0.5c-0.6,1.5-0.6,1.5-2.2,1.5H100c0.1-0.3,0.2-0.5,0.3-0.7c1.9-4.6,3.8-9.2,5.8-13.9c0.1-0.4,0.4-0.6,0.8-0.5
	c1.3,0,2.7,0,4,0c0.3,0,0.5,0.2,0.6,0.4c2,4.8,4,9.6,6,14.4C117.5,48.1,117.5,48.1,117.5,48.3z M108.7,39.1l-1.3,3.7h2.7L108.7,39.1
	z"/>
<path class="st0" d="M41.9,23.7c1.6,1.3,3.6,1.9,5.7,1.9c0.5,0,1.2,0.1,1.2-0.6s-0.6-0.7-1-0.8c-1.1-0.3-2.2-0.5-3.3-0.8
	c-0.7-0.2-1.3-0.4-1.9-0.7c-2.4-1-3.4-3.8-2.4-6.1c0.3-0.7,0.8-1.4,1.5-1.9c0.9-0.7,2-1.2,3.1-1.3c2.9-0.5,5.9,0,8.4,1.5
	c0.2,0.1,0.5,0.3,0.7,0.5l-2.6,3.5c-1.4-1-3-1.5-4.7-1.5c-0.1,0-0.3,0-0.4,0c-0.3,0.2-0.6,0.4-0.8,0.6c0.2,0.2,0.4,0.6,0.7,0.7
	c1.1,0.3,2.1,0.5,3.2,0.8c0.8,0.2,1.5,0.5,2.2,0.8c1.6,0.5,2.7,1.9,2.8,3.6c0.3,1.9-0.6,3.8-2.3,4.8c-1.1,0.7-2.3,1.1-3.6,1.1
	c-2.9,0.3-5.7-0.3-8.2-1.8c-0.3-0.2-0.5-0.3-0.8-0.5c-0.1-0.1-0.1-0.1-0.2-0.2L41.9,23.7z"/>
<path class="st0" d="M112,29.5c0-1.2,0-2.5,0-3.8c0-0.2,0.2-0.4,0.4-0.6c1.9-2.2,3.7-4.3,5.6-6.5c0.2-0.2,0.3-0.3,0.5-0.6h-6.3v-4.6
	h13.4c0,1.2,0,2.5,0,3.7c-0.1,0.2-0.2,0.5-0.4,0.6c-1.9,2.2-3.8,4.4-5.7,6.5l-0.5,0.6h6.5v4.6L112,29.5z"/>
<path class="st0" d="M159.1,17.4l-4.3,2.3c-1.6-1.8-3.6-2.1-5-0.8c-1.4,1.5-1.4,3.9,0,5.4c1.4,1.3,3.4,0.9,4.9-0.9l4.3,2.1
	c-1,3-4.9,4.9-8.9,4.3c-3.8-0.6-6.6-3.8-6.8-7.6c-0.3-4.1,2.4-7.9,6.5-8.8C153.8,12.5,157.8,14.2,159.1,17.4z"/>
<path class="st0" d="M111.1,17.3l-4.3,2.3c-1.5-1.8-3.6-2.1-5-0.7c-1.4,1.6-1.4,3.9,0.1,5.4c1.4,1.2,3.5,0.8,4.8-0.9l2.2,1l2.1,1.1
	c-1.3,3.1-5.1,4.9-9,4.2c-3.8-0.7-6.6-3.9-6.7-7.8c-0.2-4.7,3.4-8.7,8.1-8.9C106.5,13,109.5,14.6,111.1,17.3L111.1,17.3z"/>
<path class="st0" d="M131.2,33.3c0.1,0.1,0.1,0.2,0.1,0.3c0,1.3,0,2.6,0,3.9h-7.4v1.6h6.9v3.2h-6.9v5.8h-5c0.1-0.2,0.1-0.5,0.1-0.8
	c0-4.4,0-8.9,0-13.3c0-0.6,0.2-0.7,0.7-0.7c3.6,0,7.1,0,10.7,0C130.6,33.4,130.9,33.3,131.2,33.3z"/>
<path class="st0" d="M82.8,37.5h-4.2v10.8h-5V37.5h-4.2c0-1.1,0-2.2,0-3.3c0-0.6,0.2-0.8,0.8-0.8c4.3,0,8.6,0,12.8,0v3.9L82.8,37.5z
	"/>
</svg>
