<?xml version="1.0" encoding="utf-8"?>
<!-- Generator: Adobe Illustrator 25.3.0, SVG Export Plug-In . SVG Version: 6.00 Build 0)  -->
<svg version="1.1" id="Layer_1" xmlns="http://www.w3.org/2000/svg" xmlns:xlink="http://www.w3.org/1999/xlink" x="0px" y="0px"
	 viewBox="0 0 180 60" style="enable-background:new 0 0 180 60;" xml:space="preserve">
<style type="text/css">
	.st0{fill:#004BA6;}
	.st1{fill:#E66312;}
</style>
<path class="st0" d="M178,38.9h-6.1c-0.2,0-0.5-0.1-0.5-0.3c0,0,0,0,0,0c-0.2-0.6-0.5-1.2-0.7-1.7c0-0.2-0.2-0.3-0.4-0.3
	c-1.9,0-3.7,0-5.6,0c-0.2,0-0.4,0.1-0.4,0.3c-0.2,0.7-0.5,1.4-0.8,2.1H157c0.1-0.2,0.1-0.3,0.2-0.5c2.4-5.7,4.8-11.3,7.2-17
	c0.1-0.3,0.3-0.4,0.6-0.4c1.7,0,3.4,0,5.1,0c0.3,0,0.5,0.1,0.6,0.4c2.4,5.6,4.8,11.3,7.2,17C177.8,38.6,177.9,38.7,178,38.9
	L178,38.9z M165.8,32.3h3.2l-1.6-4.3C166.9,29.5,166.4,30.9,165.8,32.3L165.8,32.3z"/>
<path class="st0" d="M20.6,50.4c-8.9,0.1-16.6-6.2-18.2-14.9c-1.1-5.9,0.7-11.9,5-16.1c0.7-0.8,1.8-1.1,2.8-0.7
	c1.4,0.5,2.1,1.9,1.6,3.3c-0.1,0.4-0.3,0.7-0.6,1c-1.3,1.3-2.3,2.8-3,4.5c-2.5,6.7,0.8,14.2,7.6,16.8c6.7,2.5,14.2-0.8,16.8-7.6
	c0.3-0.8,0.5-1.7,0.7-2.6c0.7-4.1-0.7-8.2-3.6-11.1c-0.7-0.7-1-1.7-0.7-2.7c0.5-1.4,1.9-2.1,3.3-1.7c0.4,0.1,0.8,0.4,1.1,0.7
	c2.8,2.7,4.6,6.3,5.1,10.2c1,6-1.2,12-5.7,16.1C29.3,48.7,25,50.4,20.6,50.4z"/>
<path class="st0" d="M129,21.1v17.8h-1.3c-1.2,0-2.4,0-3.6,0c-0.3,0-0.6-0.1-0.7-0.3l-6-7.5l-0.3-0.4v8.1h-5.9V21.1h2.4
	c0.9,0,1.9,0,2.8,0c0.2,0,0.4,0.1,0.6,0.3c2,2.5,4,5,6.1,7.5v-7.8H129z"/>
<path class="st0" d="M78.7,21h10.2c1.1,0,2.2,0.2,3.2,0.5c1.6,0.5,2.6,2,2.7,3.6c0.1,1.7-0.8,3.3-2.4,4l-0.7,0.3l1.2,0.5
	c3.3,1.4,3,5.8,0.7,7.5c-1.1,0.8-2.5,1.3-3.9,1.3c-2.8,0.1-5.7,0.1-8.5,0.1h-2.5V21z M84.3,31.5v2.7c1.2,0,2.3,0,3.5,0
	c0.2,0,0.5-0.1,0.7-0.3c0.3-0.2,0.5-0.6,0.5-1c0.1-0.7-0.5-1.4-1.2-1.5c0,0-0.1,0-0.1,0C86.6,31.5,85.5,31.5,84.3,31.5z M84.3,28
	c1.1,0,2.1,0,3.1,0c0.7,0,1.2-0.5,1.2-1.2c0,0,0,0,0-0.1c0.1-0.6-0.4-1.2-1-1.3c0,0-0.1,0-0.1,0c-1-0.1-2.1,0-3.1,0L84.3,28z"/>
<path class="st0" d="M131.1,38.9V21.1c0.1,0,0.1,0,0.2,0c2.8,0,5.5,0,8.3,0.1c1.8,0,3.6,0.5,5.1,1.4c2.2,1.2,3.6,3.4,3.8,5.9
	c0.3,1.7,0,3.5-0.6,5.1c-1.1,2.4-3.2,4.2-5.8,4.7c-1.1,0.3-2.3,0.5-3.4,0.5C136.1,38.9,133.6,38.9,131.1,38.9z M137.1,33.7
	c0.7,0,1.3,0,1.9,0c1.8,0.1,3.3-1.3,3.5-3.1c0.3-1.5-0.4-3.1-1.9-3.8c-1.1-0.4-2.4-0.6-3.6-0.5V33.7z"/>
<path class="st0" d="M75.4,23l-3,4.1c-1-0.8-2.2-1.2-3.5-1.2c-2.2-0.1-4.1,1.7-4.2,3.9c0,0.2,0,0.4,0,0.6c0.2,3.3,3.4,4.6,6.1,3.6
	c0.1-0.1,0.2-0.2,0.2-0.3c0-0.4,0-0.8,0-1.2h-3v-3.9h8.2c0,0.1,0,0.3,0,0.4c0,2.4,0,4.8,0,7.2c0,0.2-0.1,0.4-0.2,0.5
	c-3.9,3.1-9.4,3.4-13.6,0.6c-2.4-1.7-3.8-4.5-3.6-7.5c0.1-4.8,3.8-8.7,8.6-9c2.4-0.3,4.7,0.2,6.8,1.4C74.6,22.4,75,22.7,75.4,23z"/>
<path class="st0" d="M57.2,23.1l-2.8,3.8c-1-0.5-2-0.8-3-1.1c-1-0.2-2-0.3-2.9-0.3c-0.4-0.1-0.7,0.2-0.8,0.6c0,0,0,0,0,0
	c-0.1,0.4,0.2,0.7,0.6,0.8c0,0,0,0,0,0c1,0.3,2,0.5,3,0.8c1.1,0.3,2.3,0.7,3.4,1.1c4.1,1.8,3.3,6.8,1,8.7c-1.1,0.9-2.5,1.4-3.9,1.6
	c-3.2,0.5-6.5-0.1-9.4-1.7c-0.5-0.3-1-0.6-1.5-1l3-4l0.6,0.4c1.7,1.1,3.8,1.7,5.9,1.6c0.3,0,0.5,0,0.7-0.2c0.2-0.1,0.4-0.3,0.5-0.6
	c0-0.3-0.2-0.5-0.4-0.6c-0.5-0.2-1-0.4-1.6-0.5l-4.2-1.1c-0.2-0.1-0.4-0.2-0.7-0.3c-4.4-1.9-3.5-7.1-0.8-9c1.3-0.9,2.8-1.4,4.4-1.5
	c2.8-0.3,5.5,0.3,7.9,1.7C56.5,22.7,56.8,22.9,57.2,23.1z"/>
<path class="st1" d="M17.6,14.4h-5.4c-0.3,0-0.5,0-0.8-0.1c-1.4-0.3-2.4-1.6-2.1-3c0.2-1.3,1.3-2.2,2.6-2.1h16.7
	c1.4,0,2.6,1.2,2.6,2.6s-1.2,2.6-2.6,2.6c-1.7,0-3.4,0-5.1,0h-0.6v0.5c0,5.6,0,11.3,0,16.9c0,0.4,0,0.7-0.1,1.1
	c-0.4,1.4-1.8,2.2-3.2,1.8c-1.2-0.3-1.9-1.4-1.9-2.6L17.6,14.4L17.6,14.4z"/>
<path class="st0" d="M103.1,21.1h5.9v17.8h-5.9V21.1z"/>
<path class="st0" d="M150.3,21.1h5.9v17.8h-5.9V21.1z"/>
</svg>
