<?xml version="1.0" encoding="utf-8"?>
<!-- Generator: Adobe Illustrator 25.3.0, SVG Export Plug-In . SVG Version: 6.00 Build 0)  -->
<svg version="1.1" id="Layer_1" xmlns="http://www.w3.org/2000/svg" xmlns:xlink="http://www.w3.org/1999/xlink" x="0px" y="0px"
	 viewBox="0 0 341 164" style="enable-background:new 0 0 341 164;" xml:space="preserve">
<style type="text/css">
	.st0{clip-path:url(#SVGID_2_);}
	.st1{fill:none;stroke:#F4F4F5;stroke-width:2;}
	.st2{opacity:0.7;fill:#407CFF;enable-background:new    ;}
	.st3{fill:#FAFAFA;}
	.st4{fill:none;stroke:url(#SVGID_3_);stroke-width:2;}
	.st5{fill:url(#SVGID_4_);}
	.st6{clip-path:url(#SVGID_2_);fill:none;stroke:url(#SVGID_5_);stroke-width:2;}
</style>
<g>
	<defs>
		<rect id="SVGID_1_" width="341" height="164"/>
	</defs>
	<clipPath id="SVGID_2_">
		<use xlink:href="#SVGID_1_"  style="overflow:visible;"/>
	</clipPath>
	<g class="st0">
		<path class="st1" d="M-18,143h174"/>
		<path class="st1" d="M186,113h132"/>
		<path class="st1" d="M-18,81h225.5"/>
		<path class="st1" d="M-21,113h225.5"/>
		<path class="st1" d="M204.5,81H358"/>
		<path class="st1" d="M299,8v146"/>
		<path class="st1" d="M267,36v119.5"/>
		<path class="st1" d="M224,7.5V113"/>
		<path class="st1" d="M-16,45h343"/>
		<path class="st1" d="M112,14v98"/>
		<path class="st1" d="M155,45v98"/>
		<line class="st1" x1="23" y1="0" x2="23" y2="155"/>
		<path class="st1" d="M67,46v105"/>
		<circle class="st2" cx="67" cy="81" r="3.5"/>
		<circle class="st2" cx="23" cy="45" r="3.5"/>
		<circle class="st2" cx="22.5" cy="142.5" r="3.5"/>
		<circle class="st2" cx="299" cy="45" r="3.5"/>
		<circle class="st2" cx="267" cy="81" r="3.5"/>
		<g>
			<path class="st3" d="M140.6,61.9l25.2-15.8c2.2-1.4,5-1.4,7.3-0.2l27,14.9c2.3,1.3,3.7,3.7,3.8,6.3l0.2,29.1
				c0.1,2.6-1.3,5.1-3.5,6.5L175,118.9c-2.3,1.4-5.1,1.5-7.4,0.2l-26.4-14.8c-2.3-1.3-4.2-3.8-4.1-6.5V68.2
				C137,65.6,138.4,63.2,140.6,61.9z"/>
			
				<linearGradient id="SVGID_3_" gradientUnits="userSpaceOnUse" x1="138.3217" y1="98.6157" x2="204.7229" y2="65.7355" gradientTransform="matrix(1 0 0 -1 0 165.2756)">
				<stop  offset="0" style="stop-color:#407CFF"/>
				<stop  offset="1" style="stop-color:#0035A9"/>
			</linearGradient>
			<path class="st4" d="M203,96.3c0,0.1,0,0.3,0,0.4c-0.1,2.1-1.2,4.1-3,5.2L174.4,118c-1.9,1.2-4.4,1.3-6.4,0.2l-26.4-14.8
				c-2.1-1.2-3.6-3.4-3.6-5.6v0V68.2c0,0,0,0,0,0c0-2.2,1.2-4.3,3.1-5.5v0l0,0l25.2-15.8l0,0c0,0,0,0,0,0c1.9-1.2,4.3-1.2,6.3-0.1
				l0,0l27,14.9c0,0,0,0,0,0c2,1.1,3.2,3.2,3.2,5.4c0,0,0,0,0,0L203,96.3L203,96.3L203,96.3z"/>
		</g>
		
			<linearGradient id="SVGID_4_" gradientUnits="userSpaceOnUse" x1="-97.2766" y1="128.838" x2="-72.6086" y2="118.2656" gradientTransform="matrix(1 0 0 -1 0 165.2756)">
			<stop  offset="0" style="stop-color:#407CFF"/>
			<stop  offset="1" style="stop-color:#0035A9"/>
		</linearGradient>
		<path class="st5" d="M-73.4,36.7c-0.1-0.2-0.3-0.5-0.5-0.6c-0.2-0.2-0.5-0.2-0.7-0.2h-6.5l1.8-6.7c0.1-0.2,0.1-0.4,0-0.6
			c0-0.2-0.1-0.4-0.3-0.6c-0.1-0.2-0.3-0.3-0.5-0.4c-0.2-0.1-0.4-0.1-0.6-0.1h-9.9c-0.3,0-0.6,0.1-0.9,0.3c-0.3,0.2-0.4,0.5-0.5,0.8
			l-3.8,14.2c-0.1,0.2-0.1,0.4,0,0.6c0,0.2,0.1,0.4,0.3,0.6c0.1,0.2,0.3,0.3,0.5,0.4c0.2,0.1,0.4,0.1,0.6,0.1h5.5l-2.6,9.5
			c-0.1,0.3-0.1,0.6,0.1,0.9c0.1,0.3,0.3,0.5,0.6,0.7c0.3,0.2,0.6,0.2,0.9,0.2c0.3-0.1,0.6-0.2,0.8-0.5l15.4-17
			c0.2-0.2,0.3-0.5,0.4-0.7C-73.3,37.2-73.3,36.9-73.4,36.7L-73.4,36.7z M-87.3,49l1.5-5.7c0.1-0.2,0.1-0.4,0-0.6
			c0-0.2-0.1-0.4-0.3-0.6c-0.1-0.2-0.3-0.3-0.5-0.4s-0.4-0.1-0.6-0.1h-5.4l3-11.4h7l-1.8,6.7c-0.1,0.2-0.1,0.4,0,0.7
			c0,0.2,0.1,0.4,0.3,0.6c0.1,0.2,0.3,0.3,0.5,0.4c0.2,0.1,0.4,0.1,0.6,0.1h5.1L-87.3,49z"/>
	</g>
	<linearGradient id="SVGID_5_" gradientUnits="userSpaceOnUse" x1="153.7453" y1="81.9084" x2="185.6981" y2="81.9084">
		<stop  offset="0" style="stop-color:#407CFF"/>
		<stop  offset="1" style="stop-color:#0035A9"/>
	</linearGradient>
	<path class="st6" d="M169,86.9l8.9,8.9c0.8,0.7,1.8,1.1,2.8,1.1c1.1,0,2.1-0.4,2.8-1.2s1.2-1.8,1.2-2.8c0-1.1-0.4-2.1-1.1-2.8
		l-8.9-8.9 M169,86.9l3.8-4.6c0.5-0.6,1.1-1,1.8-1.2c0.8-0.2,1.8-0.3,2.7-0.2c1.2,0.1,2.4-0.1,3.5-0.6c1.1-0.5,2-1.3,2.7-2.3
		c0.7-1,1.1-2.1,1.2-3.3c0.1-1.2-0.1-2.4-0.6-3.5l-5,5c-0.8-0.2-1.6-0.6-2.2-1.2c-0.6-0.6-1-1.4-1.2-2.2l5-5
		c-1.1-0.5-2.3-0.7-3.5-0.6c-1.2,0.1-2.3,0.5-3.3,1.2c-1,0.7-1.8,1.6-2.3,2.7c-0.5,1.1-0.7,2.3-0.6,3.5c0.1,1.6-0.1,3.4-1.4,4.5
		l-0.2,0.1 M169,86.9l-7.1,8.6c-0.3,0.4-0.8,0.8-1.3,1s-1,0.4-1.6,0.4c-0.5,0-1.1-0.1-1.6-0.3c-0.5-0.2-1-0.5-1.3-0.9
		c-0.4-0.4-0.7-0.8-0.9-1.3c-0.2-0.5-0.3-1-0.3-1.6c0-0.5,0.2-1.1,0.4-1.6c0.2-0.5,0.6-0.9,1-1.3l10.4-8.6l-6.3-6.3h-2.1l-3.4-5.7
		l2.3-2.3l5.7,3.4v2.1l6.5,6.5l-2.7,2.2 M179.6,91.7l-4-4 M159,92.9L159,92.9L159,92.9L159,92.9L159,92.9z"/>
</g>
</svg>
